<svg width="24" height="24" viewBox="0 0 24 24" fill="none" xmlns="http://www.w3.org/2000/svg">
<path d="M12 23C6.443 21.765 2 16.522 2 11V5L12 1L22 5V11C22 16.524 17.557 21.765 12 23ZM4 6V11C4.05715 13.3121 4.55518 15.194 6 17C7.44482 18.806 9.75681 20.4367 12 21C14.2432 20.4367 16.5552 18.806 18 17C19.4448 15.194 19.9429 13.3121 20 11V6L12 3L4 6Z" fill="white"/>
<path d="M13 11C14.3807 11 15 10.3807 15 9C15 7.61929 14.3807 6 13 6C11.6193 6 10 7.61929 10 9C10 10.3807 11.6193 11 13 11Z" fill="white"/>
<path d="M7 15C7.49273 15.8983 8.12142 16.4729 9 17C9.87858 17.5271 10.9755 17.988 12 18C13.0245 17.988 14.1214 17.5271 15 17C15.8786 16.4729 16.5073 15.8983 17 15C16.975 13.104 13.658 12 12 12C10.333 12 7.025 13.104 7 15Z" fill="white"/>
</svg>
