<svg width="24" height="24" viewBox="0 0 24 24" fill="none" xmlns="http://www.w3.org/2000/svg">
<g clip-path="url(#clip0_593_1440)">
<path fill-rule="evenodd" clip-rule="evenodd" d="M11.3936 20.0001C11.5226 20.0001 11.3023 20.0951 11.3936 20.0001C11.4848 19.9051 11.3936 20.1345 11.3936 20.0001C11.3936 19.8657 11.4848 20.0951 11.3936 20.0001C11.3023 19.9051 11.5226 19.0001 11.3936 19.0001C11.2645 19.0001 11.4848 19.9051 11.3936 20.0001C11.3023 20.0951 10.3936 19.8657 10.3936 20.0001C10.3936 20.1345 11.3023 19.9051 11.3936 20.0001C11.4848 20.0951 11.2645 20.0001 11.3936 20.0001ZM11.3936 22.0001C11.9098 22.0001 12.0285 21.3802 12.3936 21.0001C12.7586 20.62 13.3936 20.5376 13.3936 20.0001C13.3936 19.4626 12.7586 19.3802 12.3936 19.0001C12.0285 18.62 11.9098 18.0001 11.3936 18.0001C10.8773 18.0001 10.7586 18.62 10.3936 19.0001C10.0285 19.3802 9.39357 19.4626 9.39357 20.0001C9.39357 20.5376 10.0285 20.62 10.3936 21.0001C10.7586 21.3802 10.8773 22.0001 11.3936 22.0001ZM5.39357 20.0001C5.52262 20.0001 5.30231 20.0951 5.39357 20.0001C5.48482 19.9051 6.39357 20.1345 6.39357 20.0001C6.39357 19.8657 5.48482 20.0951 5.39357 20.0001C5.30231 19.9051 5.52262 19.0001 5.39357 19.0001C5.26451 19.0001 5.48482 19.9051 5.39357 20.0001C5.30231 20.0951 5.39357 19.8657 5.39357 20.0001C5.39357 20.1345 5.30231 19.9051 5.39357 20.0001C5.48482 20.0951 5.26451 20.0001 5.39357 20.0001ZM5.39357 22.0001C5.90979 22.0001 6.02854 21.3802 6.39357 21.0001C6.75859 20.62 7.39357 20.5376 7.39357 20.0001C7.39357 19.4626 6.75859 19.3802 6.39357 19.0001C6.02854 18.62 5.90979 18.0001 5.39357 18.0001C4.87734 18.0001 4.75859 18.62 4.39357 19.0001C4.02854 19.3802 3.39357 19.4626 3.39357 20.0001C3.39357 20.5376 4.02854 20.62 4.39357 21.0001C4.75859 21.3802 4.87734 22.0001 5.39357 22.0001ZM-1.60643 3.00008C-1.49905 2.83239 -0.796242 3.03961 -0.606432 3.00008C-0.416623 2.96056 -0.767498 2.88829 -0.606432 3.00008L0.393568 4.00008C0.75675 4.2521 1.29687 4.55694 1.39357 5.00008L3.39357 14.0001C3.45469 14.2801 3.17801 14.8209 3.39357 15.0001C3.60912 15.1792 4.11777 15.0001 4.39357 15.0001H12.3936C12.6694 15.0001 13.178 15.1792 13.3936 15.0001C13.6091 14.8209 13.3325 14.2801 13.3936 14.0001L15.3936 7.00008C15.434 6.81461 15.4343 7.18548 15.3936 7.00008C15.3528 6.81468 14.5075 6.14873 14.3936 6.00008C14.2796 5.85144 14.5582 6.08256 14.3936 6.00008C14.229 5.91761 13.5762 6.00007 13.3936 6.00008H6.39357C6.19998 6.00008 5.53045 5.14261 5.39357 5.00008C5.25668 4.85755 5.39357 5.20165 5.39357 5.00008C5.39357 4.79852 5.25668 4.14261 5.39357 4.00008C5.53045 3.85755 6.19998 4.00008 6.39357 4.00008H13.3936C15.1113 4.00008 16.7741 5.25613 16.3936 7.00008L14.3936 15.0001C14.259 15.616 13.8677 15.6061 13.3936 16.0001C12.9194 16.3941 13.0002 17.0001 12.3936 17.0001H4.39357C3.78693 17.0001 3.86772 16.3941 3.39357 16.0001C2.91942 15.6061 2.52813 15.616 2.39357 15.0001L0.393568 5.00008C0.379755 4.93685 -0.554631 5.03608 -0.606432 5.00008L-1.60643 4.00008C-1.76748 3.88827 -1.56847 4.19772 -1.60643 4.00008C-1.64439 3.80245 -1.7138 3.16779 -1.60643 3.00008Z" fill="white"/>
<path fill-rule="evenodd" clip-rule="evenodd" d="M5.39362 10C5.5242 9.86076 6.20899 10.0001 6.39362 10C6.57825 9.99995 6.26293 9.86089 6.39362 10L7.39362 11L10.3936 8.00005C10.4579 7.92907 10.3086 8.03897 10.3936 8.00005C10.4786 7.96113 10.3011 8.00086 10.3936 8.00005C10.4861 7.99924 11.308 7.96262 11.3936 8.00005C11.4792 8.03747 11.3282 7.93021 11.3936 8.00005C11.459 8.06988 11.3586 7.90866 11.3936 8.00005C11.4286 8.09143 11.3945 8.90133 11.3936 9.00005C11.3928 9.09876 11.4302 8.90936 11.3936 9.00005C11.3571 9.09073 11.4602 8.9315 11.3936 9.00005L8.39362 13C8.26299 13.1393 7.57825 13 7.39362 13C7.20899 13 7.52426 13.1393 7.39362 13L5.39362 11C5.26301 10.8606 5.39362 11.1972 5.39362 11C5.39362 10.8029 5.26301 10.1395 5.39362 10Z" fill="white"/>
</g>
<defs>
<clipPath id="clip0_593_1440">
<rect width="24" height="24" fill="white"/>
</clipPath>
</defs>
</svg>
