<svg width="24" height="24" viewBox="0 0 24 24" fill="none" xmlns="http://www.w3.org/2000/svg">
<g clip-path="url(#clip0_593_1481)">
<path d="M18 2.00003C17.596 2.00049 17.2857 1.71161 17 2.00003C16.7143 2.28845 16.0005 3.59215 16 4.00003V4.00003C14.3731 5.73854 12.5825 6.3008 11 7.00003C9.05643 7.85873 6.76214 9.00003 6 9.00003H2C1.5455 9.00054 1.32138 8.67556 1 9.00003C0.678618 9.3245 0.000504163 9.54116 0 10V14C0.000504163 14.4589 0.678618 14.6756 1 15C1.32138 15.3245 1.5455 14.9995 2 15H3V19C3 19.153 2.89284 19.8918 3 20C3.10716 20.1082 2.84845 20 3 20H5C5.12744 20 4.89955 20.0792 5 20C5.10045 19.9209 5.96909 19.1249 6 19L7 15C7.89686 15.1193 9.36524 16.2778 11 17C12.5825 17.6993 14.3731 18.2615 16 20V20C16 20.4081 16.7142 21.7115 17 22C17.2858 22.2885 17.5959 22 18 22C18.4041 22 18.7142 22.2885 19 22C19.2858 21.7115 19 20.4081 19 20V4.00003C18.9995 3.59215 19.2857 2.28845 19 2.00003C18.7143 1.71161 18.404 2.00049 18 2.00003ZM6 14H4V10H6V14ZM1 14V10C1.00016 9.84707 0.892872 10.1082 1 10C1.10713 9.89187 1.8485 10.0002 2 10H3V14H2C1.8485 13.9999 1.10713 14.1082 1 14C0.892872 13.8919 1.00016 14.153 1 14ZM5 19H4V15H6L5 19ZM7 14V10C9.00852 9.72998 12.9969 7.67306 16 5.00003V19C12.9969 16.327 9.00852 14.2701 7 14ZM18 20C18 20.102 18.0714 20.9279 18 21C17.9286 21.0722 18.101 21 18 21C17.899 21 17.0714 21.0722 17 21C16.9286 20.9279 17 20.102 17 20V4.00003C17 3.89803 16.9286 3.07216 17 3.00003C17.0714 2.9279 17.899 3.00003 18 3.00003C18.101 3.00003 17.9286 2.9279 18 3.00003C18.0714 3.07216 18 3.89803 18 4.00003V20ZM23 11H22C21.8484 11 21.1072 11.8918 21 12C20.8928 12.1082 21 11.847 21 12C21 12.153 20.8928 11.8918 21 12C21.1072 12.1082 21.8484 13 22 13H23C23.1516 13 23.8928 12.1082 24 12C24.1072 11.8918 24 12.153 24 12C24 11.847 24.1072 12.1082 24 12C23.8928 11.8918 23.1516 11 23 11ZM21 8.00003C21.0856 8.00003 20.9229 8.03762 21 8.00003H23C23.1366 7.93373 22.9499 7.14443 23 7.00003C23.0501 6.85564 23.0657 7.13793 23 7.00003C22.9343 6.86213 22.143 6.05066 22 6.00003C21.857 5.94941 22.1366 5.93373 22 6.00003L20 7.00003C19.8832 7.05666 20.0563 7.88221 20 8.00003C19.9437 8.11786 19.9712 7.87251 20 8.00003C20.0288 8.12756 19.8987 7.91854 20 8.00003C20.1013 8.08153 20.8704 8.00018 21 8.00003V8.00003ZM23 16H21C20.8636 15.9349 20.1422 15.9491 20 16C19.8578 16.0509 20.0654 15.8627 20 16C19.9346 16.1373 19.9506 15.8561 20 16C20.0494 16.144 19.8645 16.9331 20 17L22 18C22.1366 18.0663 21.857 18.0507 22 18C22.143 17.9494 22.9343 17.1379 23 17C23.0657 16.8621 23.0501 17.1444 23 17C22.9499 16.8556 23.1366 16.0663 23 16Z" fill="white"/>
</g>
<defs>
<clipPath id="clip0_593_1481">
<rect width="24" height="24" fill="white"/>
</clipPath>
</defs>
</svg>
