<svg width="24" height="24" viewBox="0 0 24 24" fill="none" xmlns="http://www.w3.org/2000/svg">
<g clip-path="url(#clip0_593_1517)">
<path d="M13 11.9999C13.5034 11.5925 14 10.6965 14 9.99994C14 8.77552 13.2245 7.99994 12 7.99994C10.7756 7.99994 9.00005 8.77552 9.00005 9.99994C9.00005 10.6965 9.49669 11.5925 10 11.9999C8.59863 12.5145 7.16745 13.4359 7.00005 14.9999C6.99451 15.0517 7.98404 14.9504 8.00005 14.9999C8.01606 15.0495 7.96526 14.9612 8.00005 14.9999C8.03483 15.0387 7.95252 14.9788 8.00005 14.9999C8.04758 15.0211 7.94801 14.9999 8.00005 14.9999H15C15.0521 14.9999 14.9525 15.0211 15 14.9999C15.0476 14.9788 14.9653 15.0387 15 14.9999C15.0348 14.9612 14.984 15.0495 15 14.9999C15.0161 14.9504 16.0056 15.0517 16 14.9999C15.8327 13.4359 14.4015 12.5145 13 11.9999ZM10 9.99994C10 9.1846 11.1847 7.99994 12 7.99994C12.8154 7.99994 13 9.1846 13 9.99994C13 10.8151 12.8152 10.9997 12 10.9999H11C10.1849 10.9997 10 10.8151 10 9.99994ZM8.00005 14.9999C8.34579 13.5364 9.45705 12.0004 11 11.9999H12C13.543 12.0004 14.6543 13.5364 15 14.9999H8.00005ZM4.00005 8.99994C4.06517 8.99996 3.94366 9.03252 4.00005 8.99994L8.00005 6.99994C8.05644 6.96739 7.96749 7.05634 8.00005 6.99994C8.03261 6.94355 8.00005 6.06506 8.00005 5.99994V1.99994C8.00005 1.93483 8.03261 2.05634 8.00005 1.99994C7.96749 1.94355 8.05644 2.0325 8.00005 1.99994L4.00005 -5.55962e-05C3.94365 -0.0326148 4.06517 -5.55962e-05 4.00005 -5.55962e-05C3.93493 -5.55962e-05 4.05644 -0.0326148 4.00005 -5.55962e-05L4.85834e-05 1.99994C-0.0563443 2.0325 0.0326077 1.94355 4.85834e-05 1.99994C-0.0325106 2.05634 5.02376e-05 1.93483 4.85834e-05 1.99994V5.99994C5.02376e-05 6.06506 -0.0325106 6.94355 4.85834e-05 6.99994C0.0326077 7.05634 -0.0563443 6.96739 4.85834e-05 6.99994L4.00005 8.99994C4.05644 9.0325 3.93493 8.99994 4.00005 8.99994ZM2.00005 2.99994L5.00005 1.99994V1.99994L3.00005 2.99994H2.00005ZM2.00005 3.99994V3.99994V4.99994V4.99994V3.99994ZM6.00005 1.99994H7.00005L4.00005 3.99994H3.00005L6.00005 1.99994ZM4.00005 7.99994V4.99994L7.00005 2.99994V5.99994L4.00005 7.99994ZM4.00005 0.999944V0.999944L2.00005 2.99994L1.00005 1.99994L4.00005 0.999944ZM1.00005 2.99994V2.99994V4.99994C1.00005 5.06506 0.967489 4.94355 1.00005 4.99994C1.03261 5.05634 0.943656 4.96739 1.00005 4.99994L2.00005 5.99994C2.05645 6.03249 2.93493 5.99994 3.00005 5.99994C3.06517 5.99994 2.94365 6.03249 3.00005 5.99994C3.05644 5.96739 2.96749 6.05634 3.00005 5.99994C3.03261 5.94355 3.00005 5.06506 3.00005 4.99994V3.99994L4.00005 4.99994V7.99994L1.00005 5.99994V2.99994ZM23 1.99994L19 -5.55962e-05C18.9437 -0.0326148 19.0652 -5.55962e-05 19 -5.55962e-05C18.9349 -5.55962e-05 19.0564 -0.0326148 19 -5.55962e-05L15 1.99994C14.9437 2.0325 15.0326 1.94355 15 1.99994C14.9675 2.05634 15.0001 1.93483 15 1.99994V5.99994C15.0001 6.06506 14.9675 6.94355 15 6.99994C15.0326 7.05634 14.9437 6.96739 15 6.99994L19 8.99994C19.0564 9.03249 18.9349 8.99994 19 8.99994C19.0652 8.99994 18.9437 9.03249 19 8.99994L23 6.99994C23.0564 6.96739 22.9675 7.05634 23 6.99994C23.0326 6.94355 23 6.06506 23 5.99994V1.99994C23 1.93483 23.0326 2.05634 23 1.99994C22.9675 1.94355 23.0564 2.0325 23 1.99994ZM19 3.99994V3.99994L21 1.99994H22L19 3.99994ZM18 2.99994L20 1.99994H21L18 2.99994V2.99994ZM17 3.99994V3.99994V4.99994V4.99994V3.99994ZM19 0.999944H20L17 2.99994L16 1.99994L19 0.999944ZM16 2.99994V2.99994V4.99994C16 5.06506 16.9675 4.94355 17 4.99994C17.0326 5.05634 16.9437 4.96739 17 4.99994L18 5.99994C18.0564 6.03249 17.9349 5.99994 18 5.99994C18.0652 5.99994 17.9437 6.03249 18 5.99994C18.0564 5.96739 17.9675 6.05634 18 5.99994C18.0326 5.94355 18 5.06506 18 4.99994V3.99994L19 4.99994V7.99994L16 5.99994V2.99994V2.99994ZM19 7.99994V4.99994L22 2.99994V5.99994L19 7.99994ZM7.00005 15.9999C6.95786 15.9756 7.04835 16.0063 7.00005 15.9999C6.95175 15.9936 7.04711 15.9873 7.00005 15.9999C6.95299 16.0126 6.0387 15.9703 6.00005 15.9999C5.9614 16.0296 6.0244 15.9577 6.00005 15.9999L5.00005 18.9999C4.75344 18.9081 4.2632 18.9997 4.00005 18.9999C2.77841 18.9999 2.00005 19.7783 2.00005 20.9999C2.00005 22.2215 2.77836 22.9999 4.00005 22.9999C5.22174 22.9999 6.00005 22.2215 6.00005 20.9999C6.00005 20.3149 6.4901 19.4067 6.00005 18.9999L7.00005 16.9999C7.02441 16.9578 6.99369 16.0482 7.00005 15.9999C7.00641 15.9516 7.01266 16.047 7.00005 15.9999C6.98744 15.9529 7.02971 16.0386 7.00005 15.9999C6.97039 15.9613 7.04224 16.0243 7.00005 15.9999ZM4.00005 21.9999C3.18754 21.9999 3.00005 21.8125 3.00005 20.9999C3.00005 20.1874 3.18754 18.9999 4.00005 18.9999C4.81256 18.9999 6.00005 20.1874 6.00005 20.9999C6.00005 21.8125 4.81256 21.9999 4.00005 21.9999ZM12 18.9999V15.9999C12 15.9016 12.0696 16.0695 12 15.9999C11.9305 15.9304 12.0984 15.9999 12 15.9999C11.9017 15.9999 11.0696 15.9304 11 15.9999C10.9305 16.0695 11 15.9016 11 15.9999V18.9999C9.95448 19.177 9.00005 19.9048 9.00005 20.9999C9.00005 22.2216 10.7784 22.9999 12 22.9999C13.2217 22.9999 14 22.2215 14 20.9999C14 19.9048 13.0456 19.177 12 18.9999ZM12 21.9999C11.1875 21.9999 10 21.8125 10 20.9999C10 20.1874 11.1875 18.9999 12 18.9999C12.8126 18.9999 13 20.1874 13 20.9999C13 21.8125 12.8126 21.9999 12 21.9999ZM19 18.9999C18.7369 18.9997 18.2467 18.9081 18 18.9999L17 15.9999C16.9505 15.9154 16.0948 16.025 16 15.9999C15.9053 15.9749 16.0849 15.951 16 15.9999C15.9152 16.0489 16.0257 15.9054 16 15.9999C15.9744 16.0945 15.9516 16.9148 16 16.9999L17 18.9999C16.51 19.4067 17 20.3149 17 20.9999C17 22.2216 17.7784 22.9999 19 22.9999C20.2217 22.9999 21 22.2215 21 20.9999C21 19.7783 20.2217 18.9999 19 18.9999ZM19 21.9999C18.1875 21.9999 17 21.8125 17 20.9999C17 20.1874 18.1875 18.9999 19 18.9999C19.8126 18.9999 20 20.1874 20 20.9999C20 21.8125 19.8126 21.9999 19 21.9999ZM8.00005 8.99994C8.0484 8.99398 7.95309 8.98695 8.00005 8.99994C8.047 9.01294 7.96165 9.96996 8.00005 9.99994C8.03845 10.0299 7.97605 9.95754 8.00005 9.99994C8.02404 10.0423 7.99412 9.95159 8.00005 9.99994L9.00005 10.9999C9.00692 11.0559 9.0184 10.9467 9.00005 10.9999C8.9817 11.0532 8.0399 10.9601 8.00005 10.9999C7.9602 11.0398 8.05334 10.9816 8.00005 10.9999C7.94676 11.0183 8.05599 11.0068 8.00005 10.9999H7.00005C6.9515 10.9942 7.04269 11.0239 7.00005 10.9999C6.95741 10.976 7.03024 11.0384 7.00005 10.9999C6.96986 10.9615 7.01316 11.047 7.00005 10.9999C6.98693 10.9529 6.99408 11.0485 7.00005 10.9999C7.00602 10.9514 6.97591 11.0425 7.00005 10.9999C7.02419 10.9574 6.96144 11.0299 7.00005 10.9999C7.03866 10.97 6.95289 10.0128 7.00005 9.99994C7.04721 9.98708 6.95156 9.99371 7.00005 9.99994V9.99994L6.00005 8.99994C5.96497 8.96564 6.01921 9.04512 6.00005 8.99994C5.98089 8.95477 6.00032 9.04901 6.00005 8.99994C5.99977 8.95088 5.9814 9.04533 6.00005 8.99994C6.0187 8.95456 5.96535 9.03464 6.00005 8.99994C6.03474 8.96525 5.95467 9.01859 6.00005 8.99994C6.04543 8.9813 5.95098 8.99967 6.00005 8.99994C6.04911 9.00022 5.95488 8.98079 6.00005 8.99994C6.04522 9.0191 5.96574 8.96486 6.00005 8.99994L8.00005 9.99994V9.99994C7.99407 9.95161 7.98706 10.0469 8.00005 9.99994C8.01304 9.953 7.97008 10.0383 8.00005 9.99994C8.03002 9.96155 7.95766 9.02394 8.00005 8.99994C8.04244 8.97595 7.9517 9.00588 8.00005 8.99994ZM15 10.9999C14.9602 10.9601 14.0184 11.0532 14 10.9999C13.9817 10.9466 13.9932 11.0559 14 10.9999L15 9.99994C15.025 9.79656 14.797 8.97486 15 8.99994C15.0484 9.00589 14.9577 8.97595 15 8.99994C15.0424 9.02394 14.9701 9.96155 15 9.99994C15.03 10.0383 14.987 9.953 15 9.99994C15.0131 10.0469 15.006 9.95159 15 9.99994V9.99994L17 8.99994C17.0344 8.96486 16.9549 9.0191 17 8.99994C17.0452 8.98079 16.951 9.00022 17 8.99994C17.0491 8.99967 16.9547 8.9813 17 8.99994C17.0454 9.01859 16.9654 8.96525 17 8.99994C17.0347 9.03464 16.9814 8.95456 17 8.99994C17.0187 9.04533 17.0003 8.95088 17 8.99994C16.9998 9.04901 17.0192 8.95477 17 8.99994C16.9809 9.04512 17.0351 8.96564 17 8.99994L16 9.99994V9.99994C16.0974 9.9885 15.9229 10.9394 16 10.9999C16.0772 11.0605 15.9881 10.9026 16 10.9999C16.012 11.0973 16.0602 10.9225 16 10.9999C15.9399 11.0774 16.0973 10.9874 16 10.9999H15C14.9441 11.0068 15.0534 11.0183 15 10.9999C14.9467 10.9816 15.0399 11.0398 15 10.9999Z" fill="white"/>
</g>
<defs>
<clipPath id="clip0_593_1517">
<rect width="24" height="24" fill="white"/>
</clipPath>
</defs>
</svg>
