<svg width="24" height="24" viewBox="0 0 24 24" fill="none" xmlns="http://www.w3.org/2000/svg">
<g clip-path="url(#clip0_593_1499)">
<path d="M23 6C23 5.99208 23.0005 6.00745 23 6C23 5.99674 23.0005 6.00326 23 6C22.9957 5.9567 23.0202 6.03678 23 6C22.9952 5.99115 23.0058 6.00838 23 6C23 6 23.0005 6.00047 23 6C22.9938 5.99115 23.0067 6.00791 23 6C22.9928 5.99162 23.0082 6.00745 23 6L20 3C19.9923 2.99255 20.0082 3.00698 20 3C19.9986 2.99907 20.0015 3.00093 20 3C19.9928 2.99441 20.0077 3.00512 20 3C19.9986 2.99907 20.0019 3.00093 20 3C19.9923 2.99534 20.0077 3.00419 20 3C19.9987 2.99957 20.0012 3.0008 20 3C19.9914 2.99581 20.0091 3.00326 20 3C19.9991 3 20.0005 3.00047 20 3C19.9909 2.99627 20.0096 3.00279 20 3C19.9991 3 20.001 3.00047 20 3C19.9909 2.99721 20.0096 3.00186 20 3V3C19.9919 2.9986 20.0082 3.00093 20 3C19.989 2.99907 20.0115 3 20 3H12V2C12.0562 1.87708 12.098 2.09544 12 2L11 0.999999C10.9521 0.953527 11.0667 1.01205 11 0.999999C10.9334 0.987951 11.062 0.973407 11 0.999999H10C9.78713 0.894619 9.22746 1.07126 9.00002 0.999999L8.00002 -5.47618e-07C7.97557 -0.0613451 8.05598 0.0371504 8.00002 -5.47618e-07C7.94406 -0.0371515 8.06784 -8.86579e-05 8.00002 -5.47618e-07H7.00002C6.86128 -5.47618e-07 7.05043 -0.125243 7.00002 -5.47618e-07L6.00002 0.999999C5.77255 1.07118 5.21287 0.894538 5.00002 0.999999H4.00002C3.938 0.973452 4.06667 0.987953 4.00002 0.999999C3.93338 1.01205 4.04802 0.953566 4.00002 0.999999L3.00002 2C2.9521 2.04652 3.01245 1.93535 3.00002 2C2.9876 2.06465 2.9726 1.93986 3.00002 2L4.00002 3C3.89116 3.20637 3.07329 3.77935 3.00002 4H2.00002C1.93677 4.02372 2.03833 4.94573 2.00002 5C1.96172 5.05427 1.99993 4.93423 2.00002 5V6C2.00002 6.13455 1.87088 5.95111 2.00002 6L3.00002 7C3.07347 7.22115 3.89153 6.79421 4.00002 7L3.00002 8C2.97265 8.06015 2.9876 8.93536 3.00002 9C3.01244 9.06463 2.95214 8.95345 3.00002 9L4.00002 10C4.048 10.0465 3.93337 9.98795 4.00002 10C4.06668 10.012 3.93801 10.0266 4.00002 10L5.00002 9C5.2127 9.10569 5.77247 8.92876 6.00002 9V10V23C6.00002 23.1802 6.81423 23 7.00002 23H23C23.1858 23 23 23.1802 23 23V6V6ZM20 4L22 6H20V4ZM6.00002 9C5.95449 8.97521 6.05219 9.00242 6.00002 9C5.94786 8.99757 5.0478 8.97954 5.00002 9H4.00002V8V7C4.04275 6.90595 4.05187 7.08939 4.00002 7C3.85349 6.74673 4.08088 6.27963 4.00002 6C3.98582 5.9513 4.03509 6.03748 4.00002 6C3.96496 5.96252 4.04862 6.01843 4.00002 6H3.00002V5H4.00002C4.09892 4.96275 3.9717 4.0987 4.00002 4C4.08071 3.72016 3.85333 4.25336 4.00002 4C4.02559 3.95584 3.99752 3.05059 4.00002 3C4.00252 2.94941 4.02111 3.04633 4.00002 3V2V2H5.00002C5.097 2.04144 5.90785 2.05028 6.00002 2C6.26119 1.85758 5.71142 2.07809 6.00002 2C6.05027 1.9863 6.96137 2.03402 7.00002 2C7.03868 1.96598 6.98109 2.04718 7.00002 2V0.999999H8.00002V2C8.03843 2.09591 8.89825 1.97253 9.00002 2C9.28857 2.07826 8.73877 1.85774 9.00002 2C9.04556 2.02479 9.94786 1.99758 10 2C10.0522 2.00242 9.95225 2.02045 10 2H11V2V3C11 3 11.001 2.9986 11 3V3C10.9573 3.09405 10.9482 3.91014 11 4C11.1465 4.25347 10.9191 3.72025 11 4C11.0142 4.0487 10.965 3.96252 11 4C11.0351 4.03748 10.9514 4.98157 11 5H12V6H11C10.9011 6.03725 11.0283 5.9013 11 6C10.9194 6.27935 11.1464 6.74672 11 7C10.9745 7.04416 11.0025 6.94941 11 7C10.9975 7.05059 10.9789 6.95367 11 7V8V9H10C9.95225 8.97954 10.0522 8.99757 10 9C9.94786 9.00242 9.04556 8.97521 9.00002 9C8.73883 9.14203 9.28833 8.9215 9.00002 9C8.94977 9.0137 8.03868 8.96598 8.00002 9C7.96137 9.03402 8.01896 8.95282 8.00002 9V10H7.00002V9C6.98117 8.95278 7.03869 9.03403 7.00002 9C6.96135 8.96597 6.05031 9.01362 6.00002 9C5.71148 8.92174 6.26127 9.14226 6.00002 9V9ZM7.00002 22V11H8.00002C8.13877 11 7.94961 10.1252 8.00002 10L9.00002 9C9.2275 8.92882 9.78717 9.10546 10 9L11 10C11.1268 10.0545 10.9016 10.095 11 10L12 9C12.0479 8.95347 11.9876 9.06464 12 9C12.0124 8.93535 12.0274 8.06014 12 8L11 7C11.109 6.79374 11.9271 7.22069 12 7L13 6C13.0633 5.97628 12.9617 6.05427 13 6C13.0383 5.94573 13.0001 6.06577 13 6V5C13 4.86544 13.1292 4.04889 13 4H12C11.9554 3.86498 12.0581 4.1299 12 4H19V6C19 6.18018 19.8142 7 20 7H22V22H7.00002V22ZM9.00002 7C9.99426 6.03577 9.99426 4.96423 9.00002 4C8.51851 3.53302 8.68125 3 8.00002 3C7.31879 3 6.48154 3.53302 6.00002 4C5.51851 4.46698 5.00002 4.33933 5.00002 5C5.00002 5.66067 5.51851 6.53302 6.00002 7C6.49738 7.48235 7.34712 8 8.00002 8C8.65293 8 8.50266 7.48235 9.00002 7V7ZM6.00002 5C6.00002 4.51346 5.64525 4.34407 6.00002 4C6.3548 3.65593 7.49786 4 8.00002 4C8.50218 4 8.64525 3.65593 9.00002 4C9.73214 4.71002 9.73214 6.28998 9.00002 7C8.26791 7.71002 6.73214 7.71002 6.00002 7C5.64525 6.65593 6.00002 5.487 6.00002 5V5ZM11 12H9.00002C8.81423 12 8.00002 11.8198 8.00002 12V14C8.00002 14.1802 8.81423 14 9.00002 14H11C11.1858 14 11 14.1802 11 14V12C11 11.8198 11.1858 12 11 12ZM10 14H9.00002V12H10V14ZM11 15H9.00002C8.81423 15 8.00002 14.8198 8.00002 15V17C8.00002 17.1802 8.81423 18 9.00002 18H11C11.1858 18 11 17.1802 11 17V15C11 14.8198 11.1858 15 11 15ZM10 17H9.00002V16H10V17ZM11 19H9.00002C8.81423 19 8.00002 18.8198 8.00002 19V21C8.00002 21.1802 8.81423 21 9.00002 21H11C11.1858 21 11 21.1802 11 21V19C11 18.8198 11.1858 19 11 19ZM10 21H9.00002V19H10V21ZM15 12C15.063 12.0612 15 11.9136 15 12C15 12.0864 15.063 11.9388 15 12L13 14C12.937 14.0611 13.0892 14 13 14C12.9109 14 13.0631 14.0611 13 14L12 13C11.869 12.8729 11.869 13.1271 12 13C12.1311 12.8729 12.869 12.8729 13 13V13L15 12C15.0631 11.939 14.9109 12 15 12C15.0891 12 14.937 11.939 15 12V12ZM15 15C15.063 15.0612 15 15.9136 15 16C15 16.0864 15.063 15.9388 15 16L13 17C12.937 17.0611 13.0892 18 13 18C12.9109 18 13.0631 17.0611 13 17H12C11.869 16.8729 11.869 16.1271 12 16C12.1311 15.8729 12.869 15.8729 13 16V17L15 15C15.0631 14.939 14.9109 15 15 15C15.0891 15 14.937 14.939 15 15V15ZM15 19C15.063 19.0612 15 18.9136 15 19C15 19.0864 15.063 18.9388 15 19L13 21C12.9343 21.0638 13.086 21 13 21C12.9141 21 13.0658 21.0638 13 21L12 20C11.869 19.8729 11.869 20.1271 12 20C12.1311 19.8729 12.869 19.8729 13 20V20L15 19C15.0631 18.939 14.9109 19 15 19C15.0891 19 14.937 18.939 15 19V19ZM21 13C21 13.1802 21.1858 13 21 13H17C16.8142 13 17 13.1802 17 13C17 12.8198 16.8142 13 17 13H21C21.1858 13 21 12.8198 21 13ZM21 16C21 16.1802 21.1858 17 21 17H17C16.8142 17 17 16.1802 17 16C17 15.8198 16.8142 16 17 16H21C21.1858 16 21 15.8198 21 16ZM21 20C21 20.1802 21.1858 20 21 20H17C16.8142 20 17 20.1802 17 20C17 19.8198 16.8142 20 17 20H21C21.1858 20 21 19.8198 21 20Z" fill="white"/>
</g>
<defs>
<clipPath id="clip0_593_1499">
<rect width="24" height="24" fill="white"/>
</clipPath>
</defs>
</svg>
