<svg width="24" height="24" viewBox="0 0 24 24" fill="none" xmlns="http://www.w3.org/2000/svg">
<g clip-path="url(#clip0_593_1447)">
<path d="M18.3935 18C18.6891 17.7907 19.261 17.3364 19.3935 17C19.5261 16.6636 19.4671 16.3539 19.3935 16V15C19.2842 14.6025 18.7258 14.2453 18.3935 14C18.0613 13.7547 17.8068 12.9884 17.3935 13H11.3935C10.9808 12.9875 10.7249 13.7544 10.3935 14C10.0622 14.2456 9.50038 14.6024 9.39352 15V16C9.32028 16.3549 9.26103 16.6626 9.39352 17C9.52601 17.3374 10.0981 17.789 10.3935 18L9.39352 20C9.30032 20.4417 9.28867 21.5609 9.39352 22C9.49838 22.4391 10.1107 22.6476 10.3935 23C10.6764 23.3524 10.9868 23.8016 11.3935 24C11.8002 24.1984 11.9408 23.9937 12.3935 24H16.3935C16.8482 23.9964 16.9841 24.197 17.3935 24C17.803 23.803 18.1079 23.3526 18.3935 23C18.6791 22.6474 19.2866 22.4405 19.3935 22C19.5004 21.5595 19.4859 20.4438 19.3935 20L18.3935 18ZM17.3935 15L18.3935 17C18.4177 17.1454 18.4723 16.8753 18.3935 17C18.3147 17.1247 17.5355 16.9589 17.3935 17C17.2838 17.0497 17.514 16.9994 17.3935 17C17.273 17.0006 17.5037 17.0485 17.3935 17C17.2833 16.9515 16.4742 17.0892 16.3935 17C16.3129 16.9108 16.4306 17.1143 16.3935 17C16.346 16.4588 16.4478 15.5412 16.3935 15C16.7125 15.0271 17.3121 14.54 17.3935 15V15ZM13.3935 17C13.3935 16.7835 13.38 15.1285 13.3935 15H14.3935C14.4342 15.4262 15.346 16.5535 15.3935 17V17C15.3528 17.7982 13.346 17.805 13.3935 17V17ZM10.3935 15C10.4885 14.5265 12.0542 15.0406 12.3935 15C12.3935 15.0676 12.4071 16.8715 12.3935 17C12.3559 17.1146 12.475 16.9109 12.3935 17C12.3121 17.0891 11.5045 16.9521 11.3935 17C11.2826 17.0479 11.5144 17.0016 11.3935 17C11.2726 16.9984 11.5031 17.0509 11.3935 17C11.2503 16.9603 10.4737 17.1248 10.3935 17C10.3134 16.8752 10.3697 17.1463 10.3935 17V15ZM17.3935 22C17.2356 22.1967 16.6214 21.8911 16.3935 22C16.1656 22.1089 16.6463 23.0004 16.3935 23H12.3935C12.1427 22.9976 11.6196 22.1082 11.3935 22C11.1674 21.8918 11.5522 22.1937 11.3935 22C11.2349 21.8063 10.4547 21.2425 10.3935 21C10.3323 20.7575 10.3457 21.2455 10.3935 21L11.3935 19C11.9684 19.0203 11.9496 18.3647 12.3935 18C12.8064 18.3416 13.8569 19 14.3935 19C14.9301 19 14.9806 18.3416 15.3935 18C15.836 18.3618 16.8217 19.0218 17.3935 19C17.5021 19.9335 18.174 21.195 17.3935 22V22ZM9.39352 23C9.39352 23.1794 9.52079 23.8731 9.39352 24C9.26625 24.1269 8.57351 24 8.39352 24H1.39352C1.03355 24 0.648062 24.2537 0.393524 24C0.138985 23.7463 0.393524 23.3588 0.393524 23V19C0.40077 17.8149 0.844996 16.0515 1.39352 15C1.94205 13.9485 2.42438 13.6865 3.39352 13C4.36267 12.3135 5.21695 11.1706 6.39352 11C7.5701 10.8294 9.26834 11.6171 10.3935 12C10.5466 12.0684 10.3257 11.8471 10.3935 12C10.4613 12.1529 10.4458 11.8411 10.3935 12C10.3412 12.1589 10.539 12.9168 10.3935 13C10.248 13.0832 10.5575 13.0353 10.3935 13C9.47149 12.6751 8.36216 12.8657 7.39352 13C6.42489 13.1343 5.19157 13.4365 4.39352 14C3.59548 14.5635 2.84203 15.1337 2.39352 16C1.94502 16.8663 1.39192 18.0252 1.39352 19V23H8.39352C8.57351 23 9.26625 22.8731 9.39352 23C9.52079 23.1269 9.39352 22.8206 9.39352 23ZM7.39352 10C13.6709 9.80382 13.6709 1.19618 7.39352 1C1.11612 1.19618 1.11612 9.80382 7.39352 10ZM7.39352 2C11.8793 2.14206 11.8793 8.85794 7.39352 9C2.90773 8.85794 2.90773 2.14206 7.39352 2Z" fill="white"/>
</g>
<defs>
<clipPath id="clip0_593_1447">
<rect width="24" height="24" fill="white"/>
</clipPath>
</defs>
</svg>
