<svg width="24" height="24" viewBox="0 0 24 24" fill="none" xmlns="http://www.w3.org/2000/svg">
<path fill-rule="evenodd" clip-rule="evenodd" d="M7 1.99998C7.26522 1.99998 7.81246 1.81244 8 1.99998C8.18754 2.18751 8 2.73476 8 2.99998V3.99998H16V2.99998C16 2.73476 15.8125 2.18751 16 1.99998C16.1875 1.81244 16.7348 1.99998 17 1.99998C17.2652 1.99998 17.8125 1.81244 18 1.99998C18.1875 2.18751 18 2.73476 18 2.99998V3.99998H19C19.7956 3.99998 20.4374 4.43737 21 4.99998C21.5626 5.56258 22 6.20433 22 6.99998V14C22 14.2652 22.1875 14.8124 22 15C21.8125 15.1875 21.2652 15 21 15C20.7348 15 20.1875 15.1875 20 15C19.8125 14.8124 20 14.2652 20 14V9.99998H4V19C4 19.2652 3.81246 19.8124 4 20C4.18754 20.1875 4.73478 20 5 20H10C10.2652 20 10.8125 19.8124 11 20C11.1875 20.1875 11 20.7348 11 21C11 21.2652 11.1875 21.8124 11 22C10.8125 22.1875 10.2652 22 10 22H5C4.20435 22 3.56261 21.5626 3 21C2.43739 20.4374 2 19.7956 2 19V6.99998C2 6.20433 2.43739 5.56258 3 4.99998C3.56261 4.43737 4.20435 3.99998 5 3.99998H6V2.99998C6 2.73476 5.81246 2.18751 6 1.99998C6.18754 1.81244 6.73478 1.99998 7 1.99998ZM5 5.99998C4.73478 5.99998 4.18754 5.81244 4 5.99998C3.81246 6.18751 4 6.73476 4 6.99998V7.99998H20V6.99998C20 6.73476 20.1875 6.18751 20 5.99998C19.8125 5.81244 19.2652 5.99998 19 5.99998H5Z" fill="white"/>
<path d="M18 18C17.8178 17.811 17.9977 17.2627 18 17C18.0022 16.7373 17.8145 16.1858 18 16C18.1854 15.8142 18.7377 16.0023 19 16C19.2622 15.9977 19.8113 15.8175 20 16L22 18C22.1874 18.1879 22 18.7343 22 19C22 19.2657 22.1874 19.8121 22 20L20 22C19.8113 22.1825 19.2622 22.0023 19 22C18.7377 21.9977 18.1854 22.1858 18 22C17.8145 21.8142 18.0022 21.2627 18 21C17.9977 20.7373 17.8178 20.189 18 20L20 19L18 18ZM13 16C12.8125 16.1879 13 16.7343 13 17C13 17.2657 12.8125 17.8121 13 18L15 19L13 20C12.8178 20.189 12.9977 20.7373 13 21C13.0022 21.2627 12.8145 21.8142 13 22C13.1854 22.1858 13.7377 21.9977 14 22C14.2622 22.0023 14.8113 22.1825 15 22L17 20C17.1874 19.8121 17 19.2657 17 19C17 18.7343 17.1874 18.1879 17 18L15 16C14.8124 15.8121 14.2651 16 14 16C13.7348 16 13.1875 15.8121 13 16Z" fill="white"/>
</svg>
