<svg width="24" height="24" viewBox="0 0 24 24" fill="none" xmlns="http://www.w3.org/2000/svg">
<path d="M4.00003 1C3.48436 1 2.4288 0.711881 2.00003 1C1.57126 1.28812 1.19737 2.52087 1.00003 3C0.802692 3.47913 0.899429 3.49136 1.00003 4C1.10064 4.50864 1.63539 4.63329 2.00003 5C2.36467 5.36671 2.49426 5.89883 3.00003 6C3.5058 6.10118 4.52361 6.19846 5.00003 6C5.47646 5.80154 5.71354 5.43121 6.00003 5C6.28653 4.5688 6.00003 4.51861 6.00003 4C5.99914 3.30485 5.4888 2.49155 5.00003 2C4.51126 1.50845 4.69126 1.0009 4.00003 1ZM4.00003 5C3.68449 5 3.2624 5.1763 3.00003 5C2.73767 4.8237 2.12079 4.29318 2.00003 4C1.87928 3.70682 1.93847 3.31124 2.00003 3C2.06159 2.68876 1.77691 2.22439 2.00003 2C2.22316 1.77561 2.69055 2.06191 3.00003 2C3.30951 1.93809 3.70851 1.87856 4.00003 2C4.29156 2.12144 4.82473 2.73615 5.00003 3C5.17534 3.26386 5.00003 3.68267 5.00003 4C5.00181 4.21184 5.07941 3.80377 5.00003 4C4.92065 4.19624 5.14836 4.84957 5.00003 5C4.85171 5.15043 4.19448 4.91852 4.00003 5C3.80558 5.08148 4.21069 5.00001 4.00003 5V5ZM4.00003 8C3.48436 8 2.4288 8.71188 2.00003 9C1.57126 9.28812 1.19737 9.52087 1.00003 10C0.802692 10.4791 0.899429 11.4914 1.00003 12C1.10064 12.5086 1.63539 12.6333 2.00003 13C2.36467 13.3667 2.49426 13.8988 3.00003 14C3.5058 14.1012 4.52361 13.1985 5.00003 13C5.47646 12.8015 5.71354 12.4312 6.00003 12C6.28653 11.5688 6.00003 11.5186 6.00003 11C5.99914 10.3048 5.4888 9.49155 5.00003 9C4.51126 8.50846 4.69126 8.0009 4.00003 8ZM4.00003 13C3.68449 13 3.2624 12.1763 3.00003 12C2.73767 11.8237 2.12079 12.2932 2.00003 12C1.87928 11.7068 1.93847 11.3112 2.00003 11C2.06159 10.6888 1.77691 10.2244 2.00003 10C2.22316 9.77561 2.69055 9.06191 3.00003 9C3.30951 8.93809 3.70851 9.87856 4.00003 10C4.29156 10.1214 4.82473 9.73615 5.00003 10C5.17534 10.2639 5.00003 10.6827 5.00003 11C5.00003 11.2107 5.08021 11.8053 5.00003 12C4.91986 12.1947 5.14818 11.851 5.00003 12C4.85188 12.149 4.1936 11.9194 4.00003 12C3.80647 12.0806 4.20955 13 4.00003 13ZM4.00003 16C3.48436 16 2.4288 15.7119 2.00003 16C1.57126 16.2881 1.19737 16.5209 1.00003 17C0.802692 17.4791 0.899429 18.4914 1.00003 19C1.10064 19.5086 1.63539 19.6333 2.00003 20C2.36467 20.3667 2.49426 20.8988 3.00003 21C3.5058 21.1012 4.52361 21.1985 5.00003 21C5.47646 20.8015 5.71354 20.4312 6.00003 20C6.28653 19.5688 6.00003 18.5186 6.00003 18C5.99914 17.3048 5.4888 17.4915 5.00003 17C4.51126 16.5085 4.69126 16.0009 4.00003 16ZM4.00003 20C3.68449 20 3.2624 20.1763 3.00003 20C2.73767 19.8237 2.12079 19.2932 2.00003 19C1.87928 18.7068 1.93847 18.3112 2.00003 18C2.06159 17.6888 1.77691 17.2244 2.00003 17C2.22316 16.7756 2.69055 17.0619 3.00003 17C3.30951 16.9381 3.70851 16.8786 4.00003 17C4.29156 17.1214 4.82473 16.7361 5.00003 17C5.17534 17.2639 5.00003 17.6827 5.00003 18C5.00181 18.2118 5.07941 18.8038 5.00003 19C4.92065 19.1962 5.14836 19.8496 5.00003 20C4.85171 20.1504 4.19448 19.9185 4.00003 20C3.80558 20.0815 4.21069 20 4.00003 20V20ZM10 5H19C19.2105 5.00986 19.8026 5.07423 20 5C20.1974 4.92578 20.8476 5.14634 21 5C21.1525 4.85366 20.9171 4.19485 21 4C21.0829 3.80515 21 4.21194 21 4C21 3.78806 21.0829 3.19485 21 3C20.9171 2.80515 21.1525 2.14634 21 2C20.8476 1.85366 20.1974 2.07423 20 2C19.8026 1.92578 19.2105 1.99014 19 2H10C9.59972 2.01875 9.27673 2.70847 9.00003 3C8.72333 3.29153 9.00003 3.59698 9.00003 4C9.00003 4.40302 8.72333 4.70847 9.00003 5C9.27673 5.29153 9.59972 4.98126 10 5ZM10 3H19C19.0752 2.99405 19.9288 2.97517 20 3C20.0712 3.02483 19.9447 2.94855 20 3C20.0554 3.05145 19.9698 2.93056 20 3C20.0302 3.06945 20 3.9242 20 4C20 4.0758 20.0302 3.93056 20 4C19.9698 4.06945 20.0554 3.94855 20 4C19.9447 4.05145 20.0712 3.97517 20 4C19.9288 4.02483 19.0752 4.00595 19 4H10C9.86296 3.98915 10.0934 4.10154 10 4C9.9067 3.89846 10 4.13828 10 4C10 3.86173 9.9067 3.10154 10 3C10.0934 2.89846 9.86296 3.01086 10 3ZM19 9H10C9.58674 9 9.29227 9.7061 9.00003 10C8.70779 10.2939 9.00003 10.5844 9.00003 11C9.00003 11.4156 8.70779 11.7061 9.00003 12C9.29227 12.2939 9.58674 13 10 13H19C19.4133 13 19.7078 12.2939 20 12C20.2923 11.7061 21 11.4156 21 11C21 10.5844 20.2923 10.2939 20 10C19.7078 9.7061 19.4133 9 19 9ZM19 12H10C9.85511 12 10.1025 11.1031 10 11C9.89756 10.8969 10 11.1457 10 11C10 10.8543 9.89756 11.1031 10 11C10.1025 10.8969 9.85511 10 10 10H19C19.145 10 19.8976 10.8969 20 11C20.1025 11.1031 20 10.8543 20 11C20 11.1457 20.1025 10.8969 20 11C19.8976 11.1031 19.145 12 19 12ZM19 17H10C9.59972 17.0187 9.27673 16.7085 9.00003 17C8.72333 17.2915 9.00003 17.597 9.00003 18C9.00003 18.403 8.72333 18.7085 9.00003 19C9.27673 19.2915 9.59972 19.9813 10 20H19C19.2105 20.0099 19.8026 20.0742 20 20C20.1974 19.9258 20.8476 20.1463 21 20C21.1525 19.8537 20.9171 19.1949 21 19C21.0829 18.8052 21 18.2119 21 18C21 17.7881 21.0829 18.1949 21 18C20.9171 17.8052 21.1525 17.1463 21 17C20.8476 16.8537 20.1974 17.0742 20 17C19.8026 16.9258 19.2105 16.9901 19 17ZM19 19H10C9.86296 18.9891 10.0934 19.1015 10 19C9.9067 18.8985 10 18.1383 10 18C10 17.8617 9.9067 18.1015 10 18C10.0934 17.8985 9.86296 18.0109 10 18H19C19.0752 17.9941 19.9288 17.9752 20 18C20.0712 18.0248 19.9447 17.9486 20 18C20.0554 18.0515 19.9698 17.9306 20 18C20.0302 18.0694 20 17.9242 20 18C20 18.0758 20.0302 18.9306 20 19C19.9698 19.0694 20.0554 18.9486 20 19C19.9447 19.0515 20.0712 18.9752 20 19C19.9288 19.0248 19.0752 19.006 19 19Z" fill="#FAF3F3"/>
</svg>
