<svg width="24" height="24" viewBox="0 0 24 24" fill="none" xmlns="http://www.w3.org/2000/svg">
<path fill-rule="evenodd" clip-rule="evenodd" d="M6.00003 2.00003H18C18.439 2.00003 18.687 1.97903 19 2.00003C19.33 2.02303 19.674 1.86503 20 2.00003C20.3641 2.1508 20.7214 2.72138 21 3.00003C21.2787 3.27868 21.8493 3.63594 22 4.00003C22.135 4.32603 21.977 4.67003 22 5.00003C22.021 5.31303 22 5.56103 22 6.00003V6.00003C22 6.43903 22.021 6.68703 22 7.00003C21.977 7.33003 22.135 7.67403 22 8.00003C21.8493 8.36412 21.2787 8.72138 21 9.00003C20.7214 9.27868 20.3641 9.84926 20 10C19.685 10.1229 19.3379 9.9858 19 10C18.687 10.021 18.439 10 18 10H7.00003V15C7.00003 15.577 6.97603 15.717 7.00003 16C7.02203 16.272 6.97503 15.95 7.00003 16C7.0959 16.1882 7.81188 16.9042 8.00003 17C8.05003 17.025 7.72803 16.978 8.00003 17C8.28203 17.024 8.42303 17 9.00003 17H10V17C10.022 16.67 9.86503 16.326 10 16C10.1508 15.6359 10.7214 15.2787 11 15C11.2787 14.7214 11.6359 14.1508 12 14C12.326 13.865 12.67 14.023 13 14C13.313 13.979 13.561 14 14 14H18C18.439 14 18.687 13.979 19 14C19.33 14.023 19.674 13.865 20 14C20.3641 14.1508 20.7214 14.7214 21 15C21.2787 15.2787 21.8493 15.6359 22 16C22.135 16.326 21.977 16.67 22 17C22.021 17.313 22 17.561 22 18V18C22 18.439 22.021 18.687 22 19C21.977 19.33 22.135 19.674 22 20C21.8493 20.3641 21.2787 20.7214 21 21C20.7214 21.2787 20.3641 21.8493 20 22C19.685 22.1228 19.3378 21.9857 19 22C18.687 22.021 18.439 22 18 22H14C13.561 22 13.313 22.021 13 22C12.6622 21.9858 12.3151 22.1228 12 22C11.6359 21.8493 11.2787 21.2787 11 21C10.7214 20.7214 10.1508 20.3641 10 20C9.8772 19.685 10.0143 19.3379 10 19C9.99638 18.9461 10.0024 19.0541 10 19H9.00003C8.47203 19 8.37503 19.03 8.00003 19C7.60503 18.967 7.37803 19.193 7.00003 19C6.43557 18.7124 5.28765 17.5645 5.00003 17C4.80703 16.622 5.03203 16.395 5.00003 16C4.97257 15.5486 4.99323 15.4523 5.00003 15V10C4.94599 9.99734 5.05399 10.004 5.00003 10C4.66226 9.98612 4.31511 10.1225 4.00003 10C3.63594 9.84926 3.27868 9.27868 3.00003 9.00003C2.72138 8.72138 2.1508 8.36412 2.00003 8.00003C1.8772 7.685 2.01426 7.33785 2.00003 7.00003C1.97903 6.68803 2.00003 6.43903 2.00003 6.00003V6.00003C2.00003 5.56103 1.97903 5.31303 2.00003 5.00003C2.02303 4.67003 1.86503 4.32603 2.00003 4.00003C2.1508 3.63594 2.72138 3.27868 3.00003 3.00003C3.27868 2.72138 3.63594 2.1508 4.00003 2.00003C4.31505 1.8772 4.66221 2.01426 5.00003 2.00003C5.31203 1.97903 5.56103 2.00003 6.00003 2.00003ZM5.00003 4.00003C4.77203 4.01503 5.04203 3.98203 5.00003 4.00003C4.75568 4.1015 4.1015 4.75568 4.00003 5.00003C3.98203 5.04203 4.01503 4.77203 4.00003 5.00003C3.98303 5.23603 4.00003 5.52003 4.00003 6.00003C4.00003 6.48003 3.98303 6.76403 4.00003 7.00003C4.01503 7.22803 3.98203 6.95803 4.00003 7.00003C4.1015 7.24438 4.75568 7.89855 5.00003 8.00003C5.04203 8.01803 4.77203 7.98503 5.00003 8.00003C5.23603 8.01703 5.52003 8.00003 6.00003 8.00003H18C18.48 8.00003 18.764 8.01703 19 8.00003C19.228 7.98503 18.958 8.01803 19 8.00003C19.2444 7.89855 19.8986 7.24438 20 7.00003C20.018 6.95803 19.985 7.22803 20 7.00003C20.017 6.76403 20 6.48003 20 6.00003C20 5.52003 20.017 5.23603 20 5.00003C19.985 4.77203 20.018 5.04203 20 5.00003C19.8986 4.75568 19.2444 4.1015 19 4.00003C18.958 3.98203 19.228 4.01503 19 4.00003C18.6583 3.98398 18.3421 3.99531 18 4.00003H6.00003C5.52003 4.00003 5.23603 3.98303 5.00003 4.00003ZM13 16C12.772 16.015 13.042 15.982 13 16C12.7557 16.1015 12.1015 16.7557 12 17C11.982 17.042 12.015 16.772 12 17C11.983 17.236 12 17.52 12 18C12 18.48 11.983 18.764 12 19C12.015 19.228 11.982 18.958 12 19C12.1015 19.2444 12.7557 19.8986 13 20C13.042 20.018 12.772 19.985 13 20C13.236 20.017 13.52 20 14 20H18C18.48 20 18.764 20.017 19 20C19.228 19.985 18.958 20.018 19 20C19.2444 19.8986 19.8986 19.2444 20 19C20.018 18.958 19.985 19.228 20 19C20.017 18.764 20 18.48 20 18C20 17.52 20.017 17.236 20 17C19.985 16.772 20.018 17.042 20 17C19.8986 16.7557 19.2444 16.1015 19 16C18.958 15.982 19.228 16.015 19 16C18.6583 15.984 18.3421 15.9953 18 16H14C13.52 16 13.236 15.983 13 16Z" fill="#FFFAFA"/>
</svg>
