<svg width="24" height="24" viewBox="0 0 24 24" fill="none" xmlns="http://www.w3.org/2000/svg">
<g clip-path="url(#clip0_593_1488)">
<path d="M23 16H19L22 14C22.1369 13.9217 22.9036 14.1248 23 14C23.0964 13.8752 22.9589 13.1523 23 13C23.0412 12.8478 23.0203 13.1564 23 13C22.9797 12.8436 23.0788 12.1366 23 12L20 8C19.921 7.86346 20.1253 7.09586 20 7C19.8747 6.90414 19.1524 7.04055 19 7C18.8476 6.95869 19.1565 6.97909 19 7C18.8435 7.02091 18.1362 6.92013 18 7L15 9L17 6C17.0796 5.86344 16.9789 5.15664 17 5C17.0211 4.84336 17.0406 5.15273 17 5C16.9594 4.84727 17.0961 4.12544 17 4C16.9039 3.87456 16.1369 4.07894 16 4L12 1C11.8634 0.921552 11.1562 1.02019 11 1C10.8438 0.979806 11.1521 0.958866 11 1C10.8479 1.04113 10.1247 0.903801 10 1C9.87526 1.0962 10.0784 1.86338 10 2L8 5V1C7.99925 0.337516 7.66248 0.00075 7 0H1C0.337516 0.00075 0.00075 0.337516 0 1V23C0.00075 23.6625 0.337516 23.9992 1 24H23C23.6625 23.9992 23.9992 23.6625 24 23V17C23.9992 16.3375 23.6625 16.0008 23 16ZM1 16C0.863406 16.0015 1.1282 15.9526 1 16V12H4L2 16H1ZM17 16H12L10 13L14 10L17 16V16ZM14 10L9 13L6 11L8 7L14 10V10ZM7 6L5 11C4.99873 11.002 5.00131 10.9978 5 11V11H4H1V6H7V6ZM5 11L8 13L3 16V16L5 11ZM9 13V13V13L11 16H5L9 13ZM7 17H12V23H7V17ZM13 17H18V23H13V17ZM19 8C19.0452 7.97335 18.948 8.00708 19 8C19.052 7.99292 18.9493 7.98641 19 8C19.1033 8.02781 18.9462 7.90757 19 8L22 13C22.0264 13.0456 21.9932 12.9478 22 13C22.0068 13.0522 22.0138 12.9492 22 13C21.9862 13.0508 22.0324 12.9584 22 13C21.9676 13.0416 22.0459 12.9741 22 13L18 16L15 10L19 8ZM11 2C11.026 1.95444 10.9585 2.03211 11 2C11.0415 1.96789 10.9494 2.01375 11 2C11.0506 1.98621 10.948 1.99334 11 2C11.052 2.00666 10.9545 1.9739 11 2L16 5C16.0932 5.05363 15.972 4.89617 16 5C16.0275 5.10313 16.0546 4.90831 16 5L14 9L8 6L11 2ZM1 1H7C7.10607 1.00016 6.925 0.924997 7 1C7.075 1.075 6.99984 0.89393 7 1V6H1V1C1.00016 0.89393 0.924997 1.075 1 1C1.075 0.924997 0.89393 1.00016 1 1ZM1 23V17C1.00016 16.8939 0.924997 17.075 1 17C1.075 16.925 0.89393 17.0002 1 17H6V23H1C0.89393 22.9998 1.075 23.075 1 23C0.924997 22.925 1.00016 23.1061 1 23ZM23 23C22.9998 23.1061 23.075 22.925 23 23C22.925 23.075 23.1061 22.9998 23 23H18V17H23C23.1061 17.0002 22.925 16.925 23 17C23.075 17.075 22.9998 16.8939 23 17V23Z" fill="white"/>
<path d="M4 18C3.17153 18 2 19.1715 2 20C2 20.8285 3.17153 21 4 21C4.82847 21 5 20.8285 5 20C4.99912 19.1719 4.82807 18.0009 4 18ZM4 20C3.58577 20 3 20.4142 3 20C3 19.5858 3.58577 19 4 19C4.41423 19 4 19.5858 4 20C3.99969 20.4141 4.41406 19.9995 4 20Z" fill="white"/>
</g>
<defs>
<clipPath id="clip0_593_1488">
<rect width="24" height="24" fill="white"/>
</clipPath>
</defs>
</svg>
