<svg width="24" height="24" viewBox="0 0 24 24" fill="none" xmlns="http://www.w3.org/2000/svg">
<g clip-path="url(#clip0_593_1512)">
<path d="M23 6.00002L12 1.00002C11.9305 0.965372 12.0776 1.00002 12 1.00002C11.9224 1.00002 12.0694 0.965372 12 1.00002L0.999983 6.00002C0.916905 6.04153 1.04882 5.92102 0.999983 6.00002C0.951146 6.07901 0.999987 6.90714 0.999983 7.00002V17C0.999963 17.0929 0.951192 17.921 0.999983 18C1.04877 18.079 0.916952 17.9585 0.999983 18L12 23C12.0694 23.0348 11.9223 23 12 23C12.0777 23 11.9305 23.0348 12 23L23 18C23.083 17.9585 22.9512 18.079 23 18C23.0488 17.921 23 17.0929 23 17V7.00002C23 6.90717 23.0488 6.07901 23 6.00002C22.9512 5.92102 23.083 6.04157 23 6.00002ZM12 2.00002L21 7.00002L19 8.00002L9.99998 3.00002L12 2.00002ZM15 10L5.99998 5.00002L8.99998 4.00002L18 8.00002L15 10ZM16 11L19 9.00002V13L18 12C17.946 11.9616 18.0646 12.0147 18 12C17.9354 11.9853 17.0653 11.9887 17 12C16.9347 12.0115 17.0558 11.9643 17 12C16.9442 12.0357 17.0378 11.9456 17 12L16 14V11ZM4.99998 6.00002L14 10L12 11L2.99998 7.00002L4.99998 6.00002ZM1.99998 8.00002L12 12V22L1.99998 17V8.00002ZM13 22V12L15 11V16C14.9999 16.1066 14.9369 15.9141 15 16C15.0631 16.0859 14.8982 15.9682 15 16C15.1017 16.0318 14.8992 16.0347 15 16C15.1008 15.9653 15.9393 16.0877 16 16L18 13L19 14C19.0747 14.0536 18.9083 13.9933 19 14C19.0917 14.0068 18.9183 14.0421 19 14C19.0817 13.9579 19.9522 14.0786 20 14C20.0477 13.9215 20.0002 14.0919 20 14V9.00002L22 8.00002V17L13 22Z" fill="white"/>
</g>
<defs>
<clipPath id="clip0_593_1512">
<rect width="24" height="24" fill="white"/>
</clipPath>
</defs>
</svg>
