<svg width="24" height="24" viewBox="0 0 24 24" fill="none" xmlns="http://www.w3.org/2000/svg">
<path d="M10.0001 22C9.80357 22 10.139 22.1397 10.0001 22C9.86112 21.8602 9.00006 21.1976 9.00006 21V14L3.00006 5.99996C2.72971 5.70034 2.06423 5.39938 2.00006 4.99996C1.93589 4.60054 1.83729 4.36996 2.00006 3.99996C2.16283 3.62996 2.663 3.22085 3.00006 2.99996C3.33711 2.77907 3.59776 3.00028 4.00006 2.99996H20.0001C20.4024 3.00028 20.663 2.77907 21.0001 2.99996C21.3371 3.22085 21.8373 3.62996 22.0001 3.99996C22.1628 4.36996 22.0642 4.60054 22.0001 4.99996C21.9359 5.39938 21.2704 5.70034 21.0001 5.99996L15.0001 14V18C15 18.1116 15.0481 18.8994 15.0001 19C14.952 19.1006 14.0867 18.9302 14.0001 19L11.0001 22C10.8687 22.1059 10.1684 21.9998 10.0001 22ZM4.00006 3.99996C3.88477 4.00025 4.09659 4.93657 4.00006 4.99996C3.90352 5.06334 4.0467 4.89393 4.00006 4.99996C3.95342 5.10599 2.98176 4.88548 3.00006 4.99996C3.01836 5.11443 3.92272 4.91397 4.00006 4.99996L11.0001 13C11.121 13.1337 10.9969 13.8192 11.0001 14V20L13.0001 18V14C12.9996 13.814 12.8757 13.1376 13.0001 13L20.0001 4.99996C20.0728 4.91359 19.9843 5.11203 20.0001 4.99996C20.0158 4.88789 20.0462 5.10321 20.0001 4.99996C19.954 4.89671 20.0938 5.06259 20.0001 4.99996C19.9063 4.93733 20.1126 4.00267 20.0001 3.99996H4.00006Z" fill="white"/>
</svg>
