<svg width="24" height="24" viewBox="0 0 24 24" fill="none" xmlns="http://www.w3.org/2000/svg">
<g clip-path="url(#clip0_593_1476)">
<path d="M7 12H17C17.8137 12 19 10.8265 19 10V5C19 4.17349 17.8137 3 17 3H13L11 1C10.7017 0.475972 10.5959 0 10 0H7C6.1863 0 5 0.173488 5 1V10C5 10.8265 6.1863 12 7 12ZM17 4C17.4002 4 18 4.59353 18 5V10C18 10.4065 17.4002 11 17 11H7C6.59983 11 6 10.4065 6 10V4H17ZM7 1H10C10.3257 1 10.837 0.713608 11 1L12 3H6V1C6 0.593481 6.59983 1 7 1ZM3 16V15C3 14.899 2.92967 15.0714 3 15C3.07033 14.9286 2.90054 14 3 14H12V13C12 12.899 11.9297 13.0714 12 13C12.0703 12.9286 11.9005 13 12 13C12.0995 13 11.9297 12.9286 12 13C12.0703 13.0714 12 12.899 12 13V14H21C21.0995 14 20.9297 14.9286 21 15C21.0703 15.0714 21 14.899 21 15V16C21 16.101 21.0703 16.9286 21 17C20.9297 17.0714 21.0995 17 21 17C20.9005 17 20.0703 17.0714 20 17C19.9297 16.9286 20 16.101 20 16V15H12V16C12 16.101 12.0703 16.9286 12 17C11.9297 17.0714 12.0995 17 12 17C11.9005 17 12.0703 17.0714 12 17C11.9297 16.9286 12 16.101 12 16V15H4V16C4 16.101 4.07033 16.9286 4 17C3.92967 17.0714 3.09946 17 3 17C2.90054 17 3.07033 17.0714 3 17C2.92967 16.9286 3 16.101 3 16ZM23 20H21L20 19C19.8248 18.6923 20.35 18 20 18H18C17.505 18 17 18.4972 17 19V23C17 23.5028 17.505 24 18 24H23C23.495 24 24 23.5027 24 23V20C24 19.4972 23.495 20 23 20ZM18 19H20C20.0838 19 19.958 18.9263 20 19V20H18V19C18 18.9602 17.9723 19.0281 18 19C18.0277 18.9719 17.9608 19.0001 18 19ZM23 23C23 23.0813 23.0801 23 23 23H18C17.9609 23 18.0277 23.0281 18 23C17.9723 22.9719 18 23.0398 18 23V20H23C23.0801 20 23 19.9187 23 20V23ZM14 20H12V19C11.8248 18.6923 11.35 18 11 18H10C9.505 18 9 18.4973 9 19V23C9 23.5028 9.50505 24 10 24H14C14.495 24 15 23.5027 15 23V20C15.0001 19.4972 14.495 20 14 20ZM10 19H11C11.0838 19 10.9581 18.9264 11 19L12 20H9V19C9.00001 18.9602 8.97231 19.0281 9 19C9.02769 18.9719 9.96084 19 10 19ZM15 23C15 23.0813 14.0801 23 14 23H10C9.96085 23 9.02768 23.0281 9 23C8.97232 22.9719 9.00004 23.0398 9 23V20H14C14.0391 20 14.9723 19.9719 15 20C15.0277 20.0281 15 19.9602 15 20V23ZM6 20H4L3 19C2.82483 18.6923 2.34997 18 2 18H1C0.505 18 0 18.4973 0 19V23C0 23.5028 0.505047 24 1 24H6C6.49505 24 7 23.5027 7 23V20C7.00005 19.4972 6.49505 20 6 20ZM1 19H2C2.08377 19 2.95809 18.9264 3 19V20H1V19C1.00004 18.9602 0.972318 19.0281 1 19C1.02768 18.9719 0.960846 19.0001 1 19ZM6 23C5.99995 23.0398 6.02769 22.9719 6 23C5.97231 23.0281 6.03915 23 6 23H1C0.960851 23 1.02768 23.0281 1 23C0.972317 22.9719 1.00004 23.0398 1 23V20H6C6.03915 20 5.97231 19.9719 6 20C6.02769 20.0281 5.99995 19.9602 6 20V23V23Z" fill="white"/>
</g>
<defs>
<clipPath id="clip0_593_1476">
<rect width="24" height="24" fill="white"/>
</clipPath>
</defs>
</svg>
