<svg width="24" height="24" viewBox="0 0 24 24" fill="none" xmlns="http://www.w3.org/2000/svg">
<g clip-path="url(#clip0_593_1452)">
<path d="M19.3936 10H17.3936V6C17.3936 5.51183 16.8858 5 16.3936 5H14.3936C14.3014 4.05473 14.0198 3 13.3936 3C12.767 3 12.4858 4.05473 12.3936 5H10.3936C10.3014 4.05473 10.0198 3 9.3936 3C8.76698 3 8.48577 4.05473 8.3936 5H6.3936C6.30144 4.05473 6.02023 3 5.3936 3C4.76745 3 4.48577 4.05473 4.3936 5H2.3936C2.30144 4.05473 2.02023 3 1.3936 3C0.76745 3 0.485768 4.05473 0.393603 5H-1.6064C-2.09858 5 -2.6064 5.51183 -2.6064 6V10H-4.6064C-4.79025 10 -4.6064 9.81782 -4.6064 10C-4.6064 10.1817 -4.79025 10 -4.6064 10H19.3936C19.5775 10 19.3936 10.1817 19.3936 10C19.3936 9.81782 19.5775 10 19.3936 10ZM13.3936 4C13.5874 4 14.3185 4.40262 14.3936 5H13.3936C13.4687 4.40262 13.1998 4 13.3936 4ZM9.3936 4C9.58744 4 10.3185 4.40262 10.3936 5H9.3936C9.46867 4.40262 9.19977 4 9.3936 4ZM5.3936 4C5.58744 4 5.31854 4.40262 5.3936 5H4.3936C4.46867 4.40262 5.19977 4 5.3936 4ZM1.3936 4C1.58744 4 1.31854 4.40262 1.3936 5H0.393603C0.468666 4.40262 1.19977 4 1.3936 4ZM16.3936 10H-1.6064V8H16.3936V10ZM16.3936 7H-1.6064V6C-1.6064 5.87525 -1.73182 5 -1.6064 5H1.3936C1.31854 5.59785 1.58744 6 1.3936 6C1.21022 6 0.393603 6.81829 0.393603 7C0.393603 7.18218 1.21022 7 1.3936 7C2.02023 7 2.30144 5.94527 2.3936 5H5.3936C5.31854 5.59785 5.58744 6 5.3936 6C5.21022 6 5.3936 6.81829 5.3936 7C5.3936 7.18218 5.21022 7 5.3936 7C6.02023 7 6.30144 5.94527 6.3936 5H10.3936C10.3185 5.59785 9.58744 6 9.3936 6C9.20975 6 9.3936 6.81829 9.3936 7C9.3936 7.18218 9.20975 7 9.3936 7C10.0198 7 10.3014 5.94527 10.3936 5H14.3936C14.3185 5.59785 13.5874 6 13.3936 6C13.2097 6 13.3936 6.81829 13.3936 7C13.3936 7.18218 13.2097 7 13.3936 7C14.0198 7 14.3014 5.94527 14.3936 5H16.3936C16.519 5 16.3936 5.87525 16.3936 6V7ZM19.3936 17H-4.6064C-4.79025 17 -4.6064 16.8183 -4.6064 17C-4.6064 17.1822 -4.79025 18 -4.6064 18H-2.6064V21C-2.6064 21.4882 -2.09858 22 -1.6064 22H16.3936C16.8858 22 17.3936 21.4882 17.3936 21V18H19.3936C19.5775 18 19.3936 17.1822 19.3936 17C19.3936 16.8183 19.5775 17 19.3936 17ZM16.3936 21C16.3936 21.1247 16.519 21 16.3936 21H-1.6064C-1.73182 21 -1.6064 21.1247 -1.6064 21V18H16.3936V21ZM-3.6064 12H-2.6064C-1.82751 12 -1.6064 12.3815 -1.6064 13C-1.6064 13.3222 -1.39271 13.835 -1.6064 14C-1.82018 14.165 -2.26548 14 -2.6064 14H-3.6064V15C-3.6064 15.1975 -3.40715 15 -3.6064 15C-3.80574 15 -3.6064 15.1975 -3.6064 15V13C-3.6064 12.922 -3.65495 12.0481 -3.6064 12C-3.55784 11.952 -3.68502 12 -3.6064 12ZM-3.6064 13V14H-2.6064C-2.20258 14 -2.6064 13.3405 -2.6064 13C-2.6064 12.8337 -2.50411 13.0701 -2.6064 13C-2.70868 12.9299 -2.39394 13 -2.6064 13H-3.6064ZM-0.606397 12V12C0.140996 12 1.3936 12.4024 1.3936 13C1.3936 13.421 0.771195 13.8545 0.393603 14L1.3936 15C1.44339 15.0884 1.42505 14.9454 1.3936 15C1.36215 15.0546 0.495888 15 0.393603 15V15C0.265047 15 0.448665 15.1066 0.393603 15L-0.606397 14V14V15C-0.606397 15.1975 -0.407149 15 -0.606397 15C-0.805739 15 -1.6064 15.1975 -1.6064 15V13C-1.6064 12.922 -1.65495 12.0481 -1.6064 12C-1.55789 11.9519 -0.68507 12 -0.606397 12ZM-0.606397 13V14V14C-0.210467 14 0.393603 13.3145 0.393603 13C0.393603 12.8467 0.491945 13.0662 0.393603 13C0.295262 12.9337 -0.407149 13 -0.606397 13V13ZM3.3936 15H1.3936C1.31493 15 1.44211 15.0481 1.3936 15C1.34505 14.9519 1.3936 15.078 1.3936 15V13C1.3936 12.922 1.34505 12.0481 1.3936 12C1.44211 11.9519 1.31493 12 1.3936 12H3.3936C3.55618 12 3.3936 12.8363 3.3936 13C3.3936 13.1637 3.55618 13 3.3936 13H2.3936V13H3.3936C3.5614 13 3.3936 13.8337 3.3936 14C3.3936 14.1637 3.5614 14 3.3936 14H2.3936V15H3.3936C3.55884 15 3.3936 14.8338 3.3936 15C3.3936 15.1636 3.55884 15 3.3936 15ZM4.3936 14V14C4.25455 14 3.3936 14.1403 3.3936 14C3.3936 13.8623 4.25455 14 4.3936 14V14C4.53518 14 5.3936 13.8623 5.3936 14C5.3936 14.1403 4.53518 14 4.3936 14ZM8.3936 14C8.3936 14.4547 7.62967 14.7129 7.3936 15C7.15758 15.2872 6.81058 15 6.3936 15C5.99492 15 5.63879 15.2768 5.3936 15C5.14837 14.7232 5.3936 14.4756 5.3936 14C5.3936 13.527 5.1497 13.2704 5.3936 13C5.63746 12.7298 5.99235 12 6.3936 12C6.79485 12 7.1497 12.7298 7.3936 13C7.63751 13.2703 8.3936 13.527 8.3936 14ZM6.3936 14C6.3936 14.2962 6.27165 13.8038 6.3936 14C6.51556 14.1963 6.15492 15 6.3936 15C6.61646 15 7.26243 15.1871 7.3936 15C7.52468 14.8129 7.3936 14.3144 7.3936 14C7.3936 13.6856 7.52468 13.1806 7.3936 13C7.26243 12.8194 6.61646 13 6.3936 13C6.17065 13 6.52344 12.8207 6.3936 13C6.26376 13.1793 6.3936 13.6829 6.3936 14ZM8.3936 12H9.3936C10.141 12 10.3936 12.4024 10.3936 13C10.3936 13.421 10.7712 13.8545 10.3936 14V15C10.4434 15.0884 10.4251 14.9454 10.3936 15C10.3622 15.0546 10.4959 15 10.3936 15V15C10.2651 15 10.4487 15.1066 10.3936 15L9.3936 14V14V15C9.3936 15.1975 8.59285 15 8.3936 15C8.19431 15 8.3936 15.1975 8.3936 15V13C8.3936 12.922 8.34505 12.0481 8.3936 12C8.44211 11.9519 8.31493 12 8.3936 12ZM9.3936 13V14V14C9.78953 14 10.3936 13.3145 10.3936 13C10.3936 12.8467 10.4919 13.0662 10.3936 13C10.2953 12.9337 9.59285 13 9.3936 13V13ZM12.3936 15H11.3936C11.3332 15 11.429 15.0351 11.3936 15C11.3582 14.9649 11.3936 15.0598 11.3936 15V13C11.3936 12.922 11.345 12.0481 11.3936 12C11.4421 11.9519 11.3149 12 11.3936 12H12.3936C12.8604 12 13.1352 12.7558 13.3936 13C13.6519 13.2443 13.3936 13.5115 13.3936 14C13.3936 14.4859 13.6506 14.7466 13.3936 15C13.1365 15.2533 12.842 15 12.3936 15ZM12.3936 13V15V15C12.9941 15 13.3936 14.6756 13.3936 14C13.3936 13.3373 12.9941 13 12.3936 13V13ZM15.3936 15H14.3936C14.3149 15 14.4421 15.0481 14.3936 15C14.345 14.9519 14.3936 15.078 14.3936 15V13C14.3936 12.922 14.345 12.0481 14.3936 12C14.4421 11.9519 14.3149 12 14.3936 12H15.3936C15.5562 12 16.3936 12.8363 16.3936 13C16.3936 13.1637 15.5562 13 15.3936 13H14.3936V13H15.3936C15.5614 13 15.3936 13.8337 15.3936 14C15.3936 14.1637 15.5614 14 15.3936 14H14.3936V15H15.3936C15.5588 15 16.3936 14.8338 16.3936 15C16.3936 15.1636 15.5588 15 15.3936 15ZM17.3936 12V12C18.141 12 18.3936 12.4024 18.3936 13C18.3936 13.421 18.7712 13.8545 18.3936 14V15C18.4434 15.0884 18.4251 14.9454 18.3936 15C18.3622 15.0546 18.4959 15 18.3936 15V15C18.2651 15 18.4487 15.1066 18.3936 15L17.3936 14V14V15C17.3936 15.1975 17.5929 15 17.3936 15C17.1943 15 16.3936 15.1975 16.3936 15V13C16.3936 12.922 16.345 12.0481 16.3936 12C16.4421 11.9519 17.3149 12 17.3936 12ZM17.3936 13V14V14C17.7895 14 18.3936 13.3145 18.3936 13C18.3936 12.8467 18.4919 13.0662 18.3936 13C18.2953 12.9337 17.5929 13 17.3936 13V13Z" fill="white"/>
</g>
<defs>
<clipPath id="clip0_593_1452">
<rect width="24" height="24" fill="white"/>
</clipPath>
</defs>
</svg>
