<svg width="24" height="24" viewBox="0 0 24 24" fill="none" xmlns="http://www.w3.org/2000/svg">
<g clip-path="url(#clip0_593_1522)">
<path d="M7.99997 24H16C16.8836 24 18 22.8836 18 22V17L22 16C22.2518 15.9296 21.8417 16.2082 22 16C22.1582 15.7918 21.9994 15.2615 22 15V8H23C24.0074 7.71763 24.2823 7.00744 24 6C23.9545 5.83762 24.0867 5.14465 24 5L22 3V3C21.9492 2.91212 22.0972 3.02901 22 3L12 1.71363e-06C11.7168 -0.0795904 12.2832 -0.0795904 12 1.71363e-06L1.99997 3C1.90289 3.02913 2.05063 2.91223 1.99997 3V3L-3.35723e-05 5C-0.538906 5.89681 0.103157 7.46113 0.999966 8C1.14533 8.08734 0.836662 7.95429 0.999966 8H1.99997V15C2.00061 15.262 1.84107 15.7917 1.99997 16C2.15886 16.2083 1.74747 15.9301 1.99997 16L5.99997 17V22C6.00001 22.8836 7.11628 24 7.99997 24ZM17 22C17 22.4418 16.4418 23 16 23H7.99997C7.55812 23 6.99997 22.4418 6.99997 22V12C6.99997 11.5582 7.55812 12 7.99997 12H16C16.4418 12 17 11.5582 17 12V22ZM22 15C21.9994 15.0864 22.0522 14.9311 22 15C21.9478 15.0689 21.083 14.9762 21 15L18 16V12C18 11.1164 16.8836 11 16 11H12V7L13 9C13.1686 9.28058 13.715 9.83879 14 10C14.2849 10.1612 14.6726 9.99993 15 10C15.1718 10.0002 15.8345 10.0466 16 10L22 8V15V15ZM23 7C22.9382 7.15625 23.1249 6.88769 23 7C22.875 7.11231 22.1619 6.95522 22 7L15 9C14.7691 9.06437 15.2227 9.08865 15 9C14.7773 8.91135 14.1234 9.20544 14 9L13 6L22 4L23 6C23.0871 6.14418 22.9864 5.83207 23 6C23.0135 6.16794 23.0629 6.84372 23 7V7ZM12 1C12.1406 0.960392 11.8594 0.960392 12 1L21 3L12 6L2.99997 3L12 1ZM0.999966 7C0.937248 6.84345 0.986079 6.16808 0.999966 6C1.01385 5.83192 0.912403 6.14414 0.999966 6L1.99997 4L11 6L9.99997 9C9.87664 9.20559 9.2227 8.91133 8.99997 9C8.77723 9.08867 9.23084 9.06458 8.99997 9L1.99997 7C1.83787 6.95496 1.12491 7.11266 0.999966 7C0.875018 6.88735 1.06149 7.15659 0.999966 7ZM2.99997 15C2.91628 14.9764 2.05251 15.0693 1.99997 15C1.94742 14.9307 2.00016 15.087 1.99997 15V8L7.99997 10C8.82145 10.2291 10.5604 9.73078 11 9L12 7V11H7.99997C7.11633 11 5.99997 11.1164 5.99997 12V16L2.99997 15Z" fill="white"/>
<path d="M9.99999 13L8.99999 14V14C8.92438 13.9292 8.10464 13.9989 7.99999 14C7.89534 14.0011 8.07399 13.9276 7.99999 14C7.92599 14.0724 8.00114 13.8976 7.99999 14C7.99884 14.1024 7.92763 13.926 7.99999 14L8.99999 15C9.07506 15.0734 8.89385 15 8.99999 15C9.10613 15 8.92492 15.0734 8.99999 15L9.99999 14C10.0724 13.926 10.0011 13.1024 9.99999 13C9.99884 12.8976 10.074 13.0724 9.99999 13C9.92599 12.9276 10.1046 13.0011 9.99999 13C9.89534 12.9989 10.0756 12.9292 9.99999 13ZM16 14H12C11.8938 14 11.0751 13.9266 11 14C10.9249 14.0734 11 13.8961 11 14C11 14.1038 10.9249 13.9266 11 14C11.0751 14.0734 11.8938 15 12 15H16C16.2211 15 16 14.2163 16 14C16 13.7837 16.2211 14 16 14ZM9.99999 15L8.99999 16V16C8.92438 15.9292 8.10464 15.9989 7.99999 16C7.89534 16.0011 8.07399 15.9276 7.99999 16C7.92599 16.0724 8.00114 16.8976 7.99999 17C7.99884 17.1024 7.92763 16.926 7.99999 17H8.99999C9.07506 17.0734 8.89385 17 8.99999 17C9.10613 17 8.92492 17.0734 8.99999 17L9.99999 16C10.0724 15.926 10.0011 16.1024 9.99999 16C9.99884 15.8976 10.074 15.0724 9.99999 15C9.92599 14.9276 10.1046 15.0011 9.99999 15C9.89534 14.9989 10.0756 14.9292 9.99999 15ZM16 16H12C11.8938 16 11.0751 15.9266 11 16C10.9249 16.0734 11 16.8961 11 17C11 17.1038 10.9249 16.9266 11 17C11.0751 17.0734 11.8938 17 12 17H16C16.1062 17 15.9249 17.0734 16 17C16.0751 16.9266 16 17.1038 16 17C16 16.8961 16.0751 16.0734 16 16C15.9249 15.9266 16.1062 16 16 16ZM9.99999 18L8.99999 19V19C8.92438 18.9292 8.10464 17.9989 7.99999 18C7.89534 18.0011 8.07399 18.9276 7.99999 19C7.92599 19.0724 8.00114 18.8976 7.99999 19C7.99884 19.1024 7.92763 18.926 7.99999 19L8.99999 20C9.07506 20.0734 8.89385 20 8.99999 20C9.10613 20 8.92492 20.0734 8.99999 20L9.99999 18C10.0724 17.926 10.0011 18.1024 9.99999 18C9.99884 17.8976 10.074 18.0724 9.99999 18C9.92599 17.9276 10.1046 18.0011 9.99999 18C9.89534 17.9989 10.0756 17.9292 9.99999 18ZM16 18H12C11.8938 18 11.0751 18.9266 11 19C10.9249 19.0734 11 18.8961 11 19C11 19.1038 10.9249 18.9266 11 19C11.0751 19.0734 11.8938 19 12 19H16C16.2211 19 16 19.2163 16 19C16 18.7837 16.2211 18 16 18ZM9.99999 20L8.99999 21V21C8.92438 20.9292 8.10464 20.9989 7.99999 21C7.89534 21.0011 8.07399 20.9276 7.99999 21C7.92599 21.0724 8.00114 20.8976 7.99999 21C7.99884 21.1024 7.92763 20.926 7.99999 21L8.99999 22C9.07506 22.0734 8.89385 22 8.99999 22C9.10613 22 8.92492 22.0734 8.99999 22L9.99999 21C10.0724 20.926 10.0011 20.1024 9.99999 20C9.99884 19.8976 10.074 20.0724 9.99999 20C9.92599 19.9276 10.1046 20.0011 9.99999 20C9.89534 19.9989 10.0756 19.9292 9.99999 20ZM16 21H12C11.8938 21 11.0751 20.9266 11 21C10.9249 21.0734 11 20.8961 11 21C11 21.1038 10.9249 20.9266 11 21C11.0751 21.0734 11.8938 22 12 22H16C16.2211 22 16 21.2163 16 21C16 20.7837 16.2211 21 16 21Z" fill="white"/>
</g>
<defs>
<clipPath id="clip0_593_1522">
<rect width="24" height="24" fill="white"/>
</clipPath>
</defs>
</svg>
