<svg width="21" height="23" viewBox="0 0 21 23" fill="none" xmlns="http://www.w3.org/2000/svg">
<path fill-rule="evenodd" clip-rule="evenodd" d="M8.03538 13.0893C8.56555 13.0894 8.66055 13.7145 9.03538 14.0893L10.0354 15.0893L11.0354 14.0893C11.4102 13.7145 11.5052 13.0894 12.0354 13.0893H16.0354C16.704 13.0893 17.5084 13.678 18.0354 14.0893C18.5624 14.5005 18.8731 14.4409 19.0354 15.0893L20.0354 18.0893C20.0698 18.2174 20.0532 17.9578 20.0354 18.0893C20.0175 18.2207 20.1027 18.9749 20.0354 19.0893C19.9681 19.2036 20.1417 19.0098 20.0354 19.0893C19.9291 19.1687 19.1641 19.0571 19.0354 19.0893C18.9066 19.1214 19.1666 19.1093 19.0354 19.0893C18.9042 19.0692 18.1486 19.1585 18.0354 19.0893C17.9222 19.02 18.113 19.1968 18.0354 19.0893C17.9578 18.9817 18.0654 18.2185 18.0354 18.0893L17.0354 16.0893C16.9814 15.873 17.2111 15.2265 17.0354 15.0893C16.8597 14.952 16.2584 15.0893 16.0354 15.0893H12.0354L11.0354 16.0893C10.6605 16.4639 10.5655 17.0893 10.0354 17.0893C9.50528 17.0893 9.41028 16.4639 9.03538 16.0893L8.03538 15.0893H4.03538C3.81241 15.0893 3.21107 14.952 3.03538 15.0893C2.85969 15.2265 3.08934 15.873 3.03538 16.0893L2.03538 18.0893C2.00541 18.2185 2.11301 18.9817 2.03538 19.0893C1.95775 19.1968 2.14859 19.02 2.03538 19.0893C1.92217 19.1585 1.16656 19.0692 1.03538 19.0893C0.904204 19.1093 1.16413 19.1214 1.03538 19.0893C0.906636 19.0571 0.141672 19.1687 0.0353829 19.0893C-0.0709068 19.0098 0.102683 19.2036 0.0353829 19.0893C-0.0319177 18.9749 0.0532265 18.2207 0.0353829 18.0893C0.0175392 17.9578 0.000994302 18.2174 0.0353829 18.0893L1.03538 15.0893C1.19764 14.4409 1.50835 14.5005 2.03538 14.0893C2.56241 13.678 3.36674 13.0893 4.03538 13.0893H8.03538ZM10.0354 0.0892529C10.8191 0.0892529 11.3167 -0.111566 12.0354 0.0892529C13.6977 0.551836 15.0354 2.50368 15.0354 4.08925V8.08925C15.0354 9.67582 13.6977 11.6267 12.0354 12.0893C11.3167 12.2891 10.8191 12.0893 10.0354 12.0893C9.25171 12.0893 8.75408 12.2901 8.03538 12.0893C6.37307 11.6267 5.03538 9.67582 5.03538 8.08925V4.08925C5.03538 2.50368 6.37307 0.551836 8.03538 0.0892529C8.75408 -0.110567 9.25171 0.0892529 10.0354 0.0892529ZM10.0354 2.08925C9.52659 2.08925 8.70111 1.90342 8.03538 2.08925C7.36766 2.27509 7.03538 3.258 7.03538 4.08925V8.08925C7.03538 8.9205 7.36766 9.90242 8.03538 10.0893C8.70111 10.2741 9.52659 10.0893 10.0354 10.0893C10.5442 10.0893 11.3697 10.2751 12.0354 10.0893C12.7031 9.90342 13.0354 8.9205 13.0354 8.08925V4.08925C13.0354 3.258 12.7031 2.27608 12.0354 2.08925C11.3697 1.90542 10.5452 2.08925 10.0354 2.08925Z" fill="white"/>
</svg>
