<svg width="24" height="24" viewBox="0 0 24 24" fill="none" xmlns="http://www.w3.org/2000/svg">
<g clip-path="url(#clip0_593_1416)">
<path d="M21 20V19L22 18C22.1003 17.9 22.1003 18.1 22 18L21 16C21 15.9 21.1003 16 21 16H19C18.6991 15.8 19.3009 16.1 19 16L18 14C18 13.9 18.1003 14 18 14H16C15.7994 14 16 13.9 16 14V16C15.6991 16.2 15.3009 15.8 15 16H14C13.8997 16 13.1003 15.9 13 16L12 18C12 18.1 11.8997 17.9 12 18L14 19V20H12C11.8997 20.1 11.8997 20.9 12 21L13 22C13.1003 22.1 13.8997 23 14 23L15 22C15.2006 22.2 15.6991 22.9 16 23V24C16.1003 24.1 15.8997 24 16 24H18C18.1003 24 18 24.1 18 24L19 23C19.3009 22.8 18.6991 22.2 19 22H21C21.1003 22 20.8997 22.1 21 22L22 21C22.1003 20.9 22.1003 20 22 20H21ZM17 21C16.1976 21 16 19.8 16 19C16 18.2 16.1976 18 17 18C17.8024 18 19 18.2 19 19C19 19.8 17.8024 21 17 21ZM5 15V13H9V15H5ZM4 12H18C18 11.4696 17.3762 11.3751 17 11C16.6238 10.6249 16.532 10 16 10H15V4H5V10H4C3.46801 10 3.37617 10.6249 3 11C2.62383 11.3751 2 11.4696 2 12V19H10C10 18.31 9.81947 17.63 10 17H4V12ZM7 6H13V10H7V6Z" fill="white"/>
</g>
<defs>
<clipPath id="clip0_593_1416">
<rect width="24" height="24" fill="white"/>
</clipPath>
</defs>
</svg>
