<svg width="24" height="24" viewBox="0 0 24 24" fill="none" xmlns="http://www.w3.org/2000/svg">
<path d="M17 9H8V7H17V9ZM7 7H5V9H7V7ZM7 4H5V6H7V4ZM10 4H8V6H10V4ZM13 17V19H14C14.55 19 15 19.45 15 20H22V22H15C15 22.55 14.55 23 14 23H10C9.45 23 9 22.55 9 22H2V20H9C9 19.45 9.45 19 10 19H11V17H4C2.89 17 2 16.11 2 15V3C2 2.46957 2.62493 2.37507 3 2C3.37507 1.62493 3.46957 1 4 1H20C21.11 1 22 1.89 22 3V15C22 16.11 21.11 17 20 17H13ZM20 15V3H4V15H20ZM11 6H19V4H11V6ZM5 12H11V10H5V12ZM13 14H19V12H13V14Z" fill="white"/>
</svg>
