<svg width="24" height="24" viewBox="0 0 24 24" fill="none" xmlns="http://www.w3.org/2000/svg">
<g clip-path="url(#clip0_593_1434)">
<path d="M4.39355 16H12.3935C12.4918 16 12.3241 15.9318 12.3935 16C12.463 16.0682 12.3935 16.9036 12.3935 17C12.3935 17.0965 12.463 16.9318 12.3935 17C12.3241 17.0682 12.4918 17 12.3935 17H4.39355C4.29532 17 4.463 17.0682 4.39355 17C4.32409 16.9318 4.39355 17.0965 4.39355 17C4.39355 16.9036 4.32409 16.0682 4.39355 16C4.463 15.9318 4.29532 16 4.39355 16ZM2.39355 16C2.49177 16 3.32409 15.9318 3.39355 16C3.463 16.0682 3.39355 16.9036 3.39355 17C3.39355 17.0965 3.463 16.9318 3.39355 17C3.32409 17.0682 2.49177 17 2.39355 17C2.29532 17 2.463 17.0682 2.39355 17C2.32409 16.9318 2.39355 17.0965 2.39355 17C2.39355 16.9036 2.32409 16.0682 2.39355 16C2.463 15.9318 2.29532 16 2.39355 16ZM4.39355 13H12.3935C12.4918 13 12.3241 12.9318 12.3935 13C12.463 13.0682 12.3935 12.9036 12.3935 13C12.3935 13.0965 12.463 12.9318 12.3935 13C12.3241 13.0682 12.4918 13 12.3935 13H4.39355C4.29532 13 4.463 13.0682 4.39355 13C4.32409 12.9318 4.39355 13.0965 4.39355 13C4.39355 12.9036 4.32409 13.0682 4.39355 13C4.463 12.9318 4.29532 13 4.39355 13ZM2.39355 13C2.49177 13 3.32409 12.9318 3.39355 13C3.463 13.0682 3.39355 12.9036 3.39355 13C3.39355 13.0965 3.463 12.9318 3.39355 13C3.32409 13.0682 2.49177 13 2.39355 13C2.29532 13 2.463 13.0682 2.39355 13C2.32409 12.9318 2.39355 13.0965 2.39355 13C2.39355 12.9036 2.32409 13.0682 2.39355 13C2.463 12.9318 2.29532 13 2.39355 13ZM4.39355 9.00002H12.3935C12.4918 9.00002 12.3241 8.93183 12.3935 9.00002C12.463 9.06822 12.3935 8.90358 12.3935 9.00002C12.3935 9.09647 12.463 9.93183 12.3935 10C12.3241 10.0682 12.4918 10 12.3935 10H4.39355C4.29532 10 4.463 10.0682 4.39355 10C4.32409 9.93183 4.39355 9.09647 4.39355 9.00002C4.39355 8.90358 4.32409 9.06822 4.39355 9.00002C4.463 8.93183 4.29532 9.00002 4.39355 9.00002ZM2.39355 9.00002C2.49177 9.00002 3.32409 8.93183 3.39355 9.00002C3.463 9.06822 3.39355 8.90358 3.39355 9.00002C3.39355 9.09647 3.463 9.93183 3.39355 10C3.32409 10.0682 2.49177 10 2.39355 10C2.29532 10 2.463 10.0682 2.39355 10C2.32409 9.93183 2.39355 9.09647 2.39355 9.00002C2.39355 8.90358 2.32409 9.06822 2.39355 9.00002C2.463 8.93183 2.29532 9.00002 2.39355 9.00002Z" fill="white"/>
<path d="M9.39355 6H5.39355C4.62155 6 4.39355 5.772 4.39355 5V3C4.39355 2.228 4.62155 2 5.39355 2H9.39355C10.1656 2 10.3936 2.228 10.3936 3V5C10.3936 5.7716 10.1652 6 9.39355 6ZM5.39355 3C5.06275 3 5.39355 2.6692 5.39355 3V5C5.39355 5.3308 5.06275 5 5.39355 5H9.39355C9.72435 5 9.39355 5.3308 9.39355 5V3C9.39355 2.6692 9.72435 3 9.39355 3H5.39355Z" fill="white"/>
<path d="M12.3936 21.0001H2.39355C0.54514 21.0001 -0.606445 19.7919 -0.606445 18.0001V6.00009C-0.606445 4.20833 0.544768 3.00009 2.39355 3.00009H3.39355C3.49221 3.00009 3.32379 2.92988 3.39355 3.00009C3.46332 3.0703 3.39355 2.9008 3.39355 3.00009C3.39355 3.09938 3.46332 3.92988 3.39355 4.00009C3.32379 4.0703 3.49221 4.00009 3.39355 4.00009H2.39355C0.955444 4.00009 0.393555 4.62126 0.393555 6.00009V18.0001C0.393555 19.3793 0.955444 20.0001 2.39355 20.0001H12.3936C13.8317 20.0001 14.3936 19.3793 14.3936 18.0001V6.00009C14.3936 4.62126 13.8317 4.00009 12.3936 4.00009H11.3936C11.2949 4.00009 11.4633 4.0703 11.3936 4.00009C11.3238 3.92988 11.3936 3.09938 11.3936 3.00009C11.3936 2.9008 11.3238 3.0703 11.3936 3.00009C11.4633 2.92988 11.2949 3.00009 11.3936 3.00009H12.3936C14.242 3.00009 15.3936 4.20833 15.3936 6.00009V18.0001C15.3936 19.7922 14.242 21.0001 12.3936 21.0001Z" fill="white"/>
</g>
<defs>
<clipPath id="clip0_593_1434">
<rect width="24" height="24" fill="white"/>
</clipPath>
</defs>
</svg>
