<svg width="24" height="24" viewBox="0 0 24 24" fill="none" xmlns="http://www.w3.org/2000/svg">
<path d="M20.0001 13C19.8369 12.8175 20.0001 12.2429 20.0001 12C20.0001 11.7571 19.8369 11.1825 20.0001 11L22.0001 9.99999C22.1436 9.84268 21.9781 9.21016 22.0001 8.99999C22.022 8.78983 22.1081 9.18266 22.0001 8.99999L20.0001 4.99999C19.8931 4.81754 19.1956 5.08617 19.0001 4.99999C18.8045 4.91381 19.2099 4.95716 19.0001 4.99999H17.0001C16.7566 5.04941 16.2157 5.12157 16.0001 4.99999C15.7844 4.87842 16.0794 5.23144 16.0001 4.99999L15.0001 2.99999C14.9318 2.8014 15.1736 2.122 15.0001 1.99999C14.8265 1.87799 14.2134 1.99945 14.0001 1.99999H10.0001C9.77809 1.98861 9.18385 1.87722 9.00005 1.99999C8.81625 2.12276 9.07087 2.79304 9.00005 2.99999L8.00005 4.99999C7.92066 5.23144 8.2157 4.87842 8.00005 4.99999C7.78441 5.12157 7.24354 5.04941 7.00005 4.99999H5.00005C4.80111 4.97238 5.18118 4.91459 5.00005 4.99999C4.81892 5.0854 4.10255 4.83024 4.00005 4.99999L2.00005 8.99999C1.88927 9.18062 1.98177 8.78988 2.00005 8.99999C2.01833 9.2101 1.85967 9.84046 2.00005 9.99999L4.00005 11C4.16324 11.1825 4.00005 11.7571 4.00005 12C4.00005 12.2429 4.16324 12.8175 4.00005 13L2.00005 14C1.85967 14.1595 2.01833 14.7899 2.00005 15C1.98177 15.2101 1.88927 14.8194 2.00005 15L4.00005 19C4.10703 19.1824 4.80448 18.9138 5.00005 19C5.19562 19.0862 4.79019 19.0428 5.00005 19H7.00005C7.24354 18.9506 7.78441 18.8784 8.00005 19C8.2157 19.1216 7.92066 18.7685 8.00005 19L9.00005 21C9.07087 21.2069 8.81625 21.8772 9.00005 22C9.18385 22.1228 9.77809 22.0114 10.0001 22H14.0001C14.2134 22.0005 14.8265 22.122 15.0001 22C15.1736 21.878 14.9318 21.1986 15.0001 21L16.0001 19C16.0794 18.7685 15.7844 19.1216 16.0001 19C16.2157 18.8784 16.7566 18.9506 17.0001 19H19.0001C19.2099 19.0428 18.8045 19.0862 19.0001 19C19.1956 18.9138 19.8931 19.1824 20.0001 19L22.0001 15C22.1081 14.8173 22.022 15.2102 22.0001 15C21.9781 14.7898 22.1436 14.1573 22.0001 14L20.0001 13ZM19.0001 14L20.0001 15L18.0001 17H17.0001C16.267 16.8528 15.6474 16.6314 15.0001 17C14.3527 17.3686 14.2343 18.3019 14.0001 19L13.0001 20H11.0001L10.0001 19C9.76579 18.3019 9.64739 17.3686 9.00005 17C8.35271 16.6314 7.73314 16.8528 7.00005 17H6.00005L4.00005 15L5.00005 14C5.5008 13.45 6.00005 12.7378 6.00005 12C6.00005 11.2622 5.5008 10.5499 5.00005 9.99999L4.00005 8.99999L6.00005 6.99999H7.00005C7.73314 7.1472 8.35271 7.36863 9.00005 6.99999C9.64739 6.63136 9.76579 5.69806 10.0001 4.99999L11.0001 3.99999H13.0001L14.0001 4.99999C14.2343 5.69806 14.3527 6.63136 15.0001 6.99999C15.6474 7.36863 16.267 7.1472 17.0001 6.99999H18.0001L20.0001 8.99999L19.0001 9.99999C18.5049 10.5487 18.0001 11.2668 18.0001 12C18.0001 12.7332 18.5049 13.4513 19.0001 14ZM12.0001 7.99999C11.1948 7.99999 10.6696 8.56053 10.0001 8.99999C9.3305 9.43946 8.30821 9.26919 8.00005 9.99999C7.69189 10.7308 7.84295 12.2242 8.00005 13C8.15715 13.7758 8.43064 14.4407 9.00005 15C9.56946 15.5593 10.2103 15.8457 11.0001 16C11.7898 16.1543 13.2561 16.3027 14.0001 16C14.744 15.6973 14.5527 14.6577 15.0001 14C15.4474 13.3423 16.0001 12.791 16.0001 12C16.0001 10.9393 15.7636 9.75004 15.0001 8.99999C14.2365 8.24995 13.0799 7.99999 12.0001 7.99999ZM12.0001 14C11.5974 14 11.3348 14.2197 11.0001 14C10.6653 13.7803 10.1541 13.3654 10.0001 13C9.84597 12.6346 9.9215 12.3879 10.0001 12C10.0786 11.6121 10.7153 11.2797 11.0001 11C11.2848 10.7203 11.6052 10.0772 12.0001 9.99999C12.3949 9.92283 12.6281 9.84864 13.0001 9.99999C13.372 10.1513 13.7764 10.6711 14.0001 11C14.2237 11.3288 14.0001 11.6045 14.0001 12C14.0001 12.5304 13.3818 12.625 13.0001 13C12.6183 13.375 12.54 14 12.0001 14Z" fill="white"/>
</svg>
