<svg width="21" height="19" viewBox="0 0 21 19" fill="none" xmlns="http://www.w3.org/2000/svg">
<path d="M18.0833 5.08335V2.08335H2.08335V5.08335H18.0833ZM18.0833 7.08335H2.08335V16.0833H18.0833V7.08335ZM1.08335 0.0833495H19.0833C19.3486 0.0833495 19.8958 -0.104187 20.0833 0.0833495C20.2709 0.270886 20.0833 0.818133 20.0833 1.08335V17.0833C20.0833 17.3486 20.2709 17.8958 20.0833 18.0833C19.8958 18.2709 19.3486 18.0833 19.0833 18.0833H1.08335C0.818133 18.0833 0.270886 18.2709 0.0833495 18.0833C-0.104187 17.8958 0.0833495 17.3486 0.0833495 17.0833V1.08335C0.0833495 0.818133 -0.104187 0.270886 0.0833495 0.0833495C0.270886 -0.104187 0.818133 0.0833495 1.08335 0.0833495ZM9.08335 11.0833H15.0833V13.0833H5.08335L9.08335 9.08335V11.0833Z" fill="white"/>
</svg>
