<svg width="20" height="20" viewBox="0 0 20 20" fill="none" xmlns="http://www.w3.org/2000/svg">
<path d="M4 12H7L12 7C12.15 6.85 11.9247 6.192 12 6C12.0753 5.808 13.0007 6.18267 13 6C12.9993 5.81733 12.0827 5.17533 12 5C11.9173 4.82467 12.134 5.15 12 5L11 4C10.85 3.85 11.1833 4.07467 11 4C10.8167 3.92533 10.2 4.00067 10 4C9.81667 4 10.1913 3.92467 10 4C9.80867 4.07533 9.15067 3.85067 9 4L4 9V12ZM6 11V10L8 7H9V8L6 11V11ZM9 7V8L8 7H9ZM9 12H16V10H11L9 12ZM0 20V2C0 1.45 0.608 1.39133 1 1C1.392 0.608667 1.45067 0.000666667 2 0H18C18.55 0 18.608 0.608 19 1C19.392 1.392 20.0007 1.45067 20 2V14C20 14.55 19.3913 14.608 19 15C18.6087 15.392 18.5507 16.0007 18 16H4L0 20ZM3 14H18V2H2V15L3 14Z" fill="white"/>
</svg>
